<svg xmlns="http://www.w3.org/2000/svg" viewBox="0 0 388.1 350"><path d="M73.5 2.2C67.9 5.1 4.9 68.3 2.1 73.7L0 77.9v258.9C0 345 7.3 350 14.8 350H265.6c7.8 0 9.2-4.8 9.3-10.8v-60.4c0-30.1-.2-54.8-.5-54.8-.2 0-5.9 5.4-12.5 12l-12 12v71.2s.3 2.3-1.3 4c-1.7 1.7-4.5 1.8-4.5 1.8H33.3s-4.3.1-6.3-2.5-2-6.3-2-6.3V88l45 .5c12 .5 17.7-6.8 17.6-17.3L88 25h155.8s3.6-.2 4.7 1.2c1.2 1.5.9 3.7.9 3.7l.5 48.3.5 48.3 12.3-12.2L275 102V16.5l-.2-4.3c0-6.8-2.6-12.2-10.3-12.2H168C78 .1 77.5.1 73.5 2.2"/><path d="M162 37.6v8.7s-2.5 1-5 2.3c-9.8 5-13.2 11.4-11.6 21.6.9 5.8 12 12.1 19.2 15.9 2 1 10 3.9 11.9 5.9 7.8 8.6-9.9 16.5-22.4 10.1-5.8-3-7.2-2.6-9.3 2.3-3.2 7.7-2.5 8.4 9.5 11.3l7.7 1.8v7.6h12.8l.2-8.7s3.2-.8 6.6-2.1c9.4-4.4 13.1-11.3 12-22-.9-8.3-6.5-13-23.2-19.3-7.5-2.8-9.5-4.5-9.5-8 0-5.6 10.7-8.8 18.4-5.6 6.7 2.8 9 2.2 10.4-2.6.7-2.3 1.5-4.8 1.7-5.4.7-1.7-7.9-5.4-12.5-5.4h-4.1v-8.4M340.3 63.6c-3.4 1.2-15.6 12.8-66.8 64.1l-62.6 62.6 17.8 17.8c9.8 9.8 18.1 17.8 18.4 17.8.4 0 22-21.4 48.2-47.5 52.3-52.2 48.3-49.2 54.1-42.4 2 2.4 2.4 3.4 1.5 4.5-.6.7-14.1 14.3-30 30.2-29.4 29.4-31.1 31.5-29.2 36.9 1.8 5.4 8.7 3.1 20-6.7 1.6-1.4 6.8-5.8 11.6-9.8s22.7-20.5 28.2-25.8c5.5-5.3 15.3-14.6 21.8-20.8 6.5-6.2 12.5-12.4 13.3-13.9 6-11.5-7.5-18.7-16.8-9l-4.1 4.3-4.6-4.6-4.6-4.6 7-6.8c9.7-9.5 11.5-13.1 11.5-22.7 0-18.4-16.8-29.9-34.7-23.6M61.4 162.5h151.1l.3-6.2.3-6.3H61.4zM61.5 187.5l64.2.3 63.2.3 6.1-6c3.4-3.3 6.1-6.2 6.1-6.5 0-.3-31.3-.5-69.5-.5H61.4l.1 12.4zM61.4 212.5h104.8s11.8-10.3 14.3-12.3c.1-.1-.1-.2-.1-.2H61.3v12.5z"/><path d="M189.8 211.2c-5.9 6-10.8 11.4-10.8 11.8s-.6 1.2-1.4 1.7c-.8.4-3.8 3.7-6.6 7.3-2.9 3.6-5.5 6.7-5.8 7-.3.3-1.1 1.3-1.6 2.2s-2.8 4.3-5 7.5c-4.3 6.3-5.3 8-9.5 16.3-3.8 7.5-6 14.6-6 19.3 0 7.3-8.3 3.4-13-6.1-5.5-11.2-12.4-13.6-19.4-6.6-2 2-3.7 4.1-3.7 4.6s-.8 2-1.9 3.3l-1.9 2.4-.6-3.7c-.3-2-.6-6.2-.6-9.2-.1-9.2-2.6-24.8-4.4-26.5-.9-.9-1.6-1.9-1.6-2.3 0-1.3-5.5-3.2-9.4-3.2-15.1 0-24.4 15.9-24.6 42.1 0 12.1 11.9 12.9 13.4.9 2.1-16.6 8.7-33 11-27.3.4 1 1.2 10.3 1.7 20.8 1.3 25.6 3.7 29.4 16.3 26.1 2.2-.6 9.5-6.9 9.6-8.3 0-.4 1.1-2.1 2.3-3.6l2.3-2.8 2.4 3.8c6.8 10.4 21.2 14.8 27.3 8.4 2.2-2.3 4-3 8.4-3.5 5-.6 12.8-3.1 17.2-5.7.8-.5 2.9-1.6 4.5-2.4s4.4-2.4 6-3.5c1.6-1.1 4.2-2.7 5.8-3.5 1.5-.9 5.4-3.8 5.9-4.3.4-.4 2.8-2.4 5.6-4.6 2.9-2.1 8.9-7 10.6-8.7 11.5-11.1 23.3-22.9 24.5-24.4 1.6-1.9-31.7-36.7-34.9-36.5-.7.2-6.2 5.2-12.1 11.2"/></svg>