<svg xmlns="http://www.w3.org/2000/svg" viewBox="0 0 400 344"><path d="M266.8 114.4c-.7-13.2-6-17.4-22.3-17.4H234v37h10.4c18.1 0 23.2-4.4 22.4-19.6zm-16.7 10.7c-1.9 0-5.1.1-5.1.1l.1-18.5s3.6-.2 5.3-.1c3.1.1 5.6 0 5.9 9.1s-2.5 9.4-6.2 9.4zM181.5 134l6.9.1-1-2.8c-1.5-3.2-2.5-4.9-4.5-8l-3.9-5.2 3.3-2.9c1.8-1.6 3-1.8 3.2-7.5 0-9.3-.3-10-20.3-10.5H153V134h12v-7c0-3.8.1-7.5.1-7.5s4.9 5.7 5.9 7c1.1 1.6 5.3 7.3 5.3 7.3s-1.1.2 5.2.2zm-8.5-24.5c0 1.7-.4 2-2.3 2.1l-5.7.1V106h6.3c1.5.1 1.8.3 1.8 2v1.5zM305 261.9V140h-37v64.2L224 140h-36v121h37l-.5-64.5 43 64.5z"/><path d="M47 211.1c0 2.5 3.3.2 5.7-3.9 1.5-2.6 3-5 3.4-5.3.3-.3 2.8-4.5 5.4-9.4 2.6-4.9 5.3-9.5 5.9-10.3 2.8-3.3 3.1-3.9 3.4-5.3.2-.8.7-1.7 1-2 .7-.5 3.1-4.4 7.8-12.7 5.1-9 .7-17-8.8-16.1-5.8.6-6.5 1.2-12.9 12-5 8.4-5.1 8.4-4.4-1C54.9 136.6 68.2 94 73.2 94c.5 0 .8-.9.8-1.9 0-1.1.4-2.2 1-2.5.5-.3 2.6-3.1 4.6-6.1 2-3 4.4-5.9 5.3-6.4.9-.5 1.2-1 .7-1C84 76 109 52 110.6 52c.8 0 1.4-.4 1.4-1s1.3-1.7 2.9-2.5c1.6-.8 3.5-2.1 4.3-2.9.8-.8 2.9-2.2 4.8-3.1 1.9-1 4.1-2.3 5-3 .8-.7 4.4-2.4 8-3.9 3.6-1.5 7.2-3.1 8-3.5 1.8-1 16.9-5.4 26.5-7.8 22-5.5 64.1-1.5 86 8.2 11.6 5.1 21.4 10.5 24.6 13.6.8.7 2.4 1.8 3.5 2.3 6.5 3 27.3 23.7 34.2 34 2.6 3.9 4.9 7.2 5.2 7.5 1.9 1.9 9.6 18 11.5 24 4.3 13.8 4.6 14.2 6.8 13.5 1.2-.4 5.3-1.4 9.1-2.2 10.2-2.2 10.5-4.5 2.6-23.8-2.2-5.4-6.5-14.3-7.9-16.5-.9-1.4-1.7-2.7-1.7-3-.2-1.1-4.1-7.4-6.2-10-1.2-1.5-2-3-1.8-3.4.3-.4.2-.4-.2-.2-.4.3-2-1.5-3.8-3.9-7.4-10.4-17.3-20.1-33.6-32.9C270.3 8.3 220-4.1 178.5 1.6c-30.9 4.3-64.3 17.8-81.7 33.2-1.5 1.3-2.9 2.3-3.2 2.3C92.2 37 74.8 54.6 68.1 63c-6.8 8.4-8.7 11.2-13.8 19.5-12.9 21-22.2 54.6-22.2 80.4v7.4l-8.3-8c-11-10.7-17.9-11.7-22.3-3.3-3.1 6-1.5 9.3 9.4 19.7 5.3 5.1 11.1 10.6 12.8 12.3 1.7 1.7 3.4 3 3.7 3 .3 0 2.2 1.6 4.3 3.6 2.1 2 6.4 5.7 9.6 8.1 3.1 2.6 5.7 5 5.7 5.4z"/><path d="M123 134h12v-27h11V97h-33v10h10v13.5zM305.2 125.5l-20.2-.6V119h18v-7.9h-18.2v-5.2l19.5.1.2-9H274v37h31.1zM214.6 128.6l2.3 5.5h12.2s-3.4-10-8.7-23.6c-1.3-3.3-2.9-7.7-3.6-9.8l-1.3-3.8-13.7.1-12 36.9 12-.3 1.6-5.1 11.2.1zM209 111l3.1 8.2-6.1.2 3-8.4zM156 261V140h-38v121h19z"/><path d="M373.4 151.4c-20.8-19.3-21.4-19.8-21.4-17.2 0 .7-1.4 2.7-3 4.4-1.6 1.8-3 3.4-3 3.8 0 .6-9.5 15.6-13.1 20.8-1 1.5-1.9 3-1.9 3.3s-1 2-2.3 3.8c-11.4 16.1-12.7 25.2-4.1 29.6 4.5 2.3 11.4-.2 13.3-4.9 1.1-2.5 5.3-9.6 8.8-14.7 1.4-2.1.5 14.7-1.4 25.2-3.1 17.2-16.3 48-22.4 52.5-.4.3-1 1.5-1.4 2.7-.7 2.2-27.6 30.4-27.6 29 0-.4-1.4.5-3.1 2-1.7 1.5-3.5 2.6-4 2.5-.5-.1-.9.2-.9.8s-.5 1-1 1-2 .9-3.2 2.1c-1.2 1.1-4.1 3-6.5 4.2-2.3 1.2-4.3 2.5-4.3 2.9 0 .5-.7.8-1.5.8s-2.9.8-4.8 1.8c-21.9 11.8-61.3 17.3-87.9 12.3-18.8-3.5-44.9-12.4-44.9-15.3 0-.5-.3-.8-.8-.5-.8.4-7.5-3.6-17.8-10.8-5.2-3.7-24.2-21.4-24.2-22.7 0-.3-1.3-2-2.9-3.7-1.6-1.7-3.6-4.7-4.5-6.6-.9-1.9-2.1-3.5-2.6-3.5s-1-.7-1-1.5-.4-1.5-.8-1.5c-1.2 0-10.8-19.5-13.6-27.5-2.9-8.3-2.6-8.2-11.4-5.6-3.8 1.1-8.1 2.2-9.4 2.3-2.3.2-2.4.4-1.6 3.3.5 1.7 1.3 4.4 1.8 6 2.6 9.3 9.6 24.8 13.6 30.2 1.3 1.8 2.4 3.5 2.4 3.8 0 .6 8.3 12.7 10.4 15.2.6.7 2.8 3.1 4.8 5.2 2 2.2 3.8 4.3 4 4.8.2.5 4 4 8.4 7.8s8.7 7.6 9.5 8.4c5 4.9 30 19.7 38.5 22.7 19.2 6.9 30.4 10 39.3 10.9 25.8 2.6 33.9 2.6 55.2-.4 18.1-2.6 43.1-11 54.3-18.4 1.5-1 2.8-1.5 2.8-1 0 .4.3.4.8-.2s3.2-2.6 6.2-4.5c17-10.6 48-41 48-47 0-.5.4-1 .8-1s1.9-1.9 3.2-4.3c1.3-2.3 2.6-4.5 2.9-4.8 1.1-.9 9.1-17.9 9.1-19.3 0-.7.4-1.7.9-2.3.8-.9 3.2-7.5 3.7-10 .1-.5.9-3.3 1.9-6 2.1-6.2 5.3-24.9 6.1-36.4l.7-8.7 3 2.5c1.7 1.4 4.7 4.2 6.8 6.2 7.7 7.5 15.4 7.7 18.7.4 3.3-7.5 2.3-8.9-25.6-34.9z"/></svg>