<?xml version="1.0" standalone="no"?>
<!DOCTYPE svg PUBLIC "-//W3C//DTD SVG 20010904//EN"
 "http://www.w3.org/TR/2001/REC-SVG-20010904/DTD/svg10.dtd">
<svg version="1.0" xmlns="http://www.w3.org/2000/svg"
 width="500.000000pt" height="500.000000pt" viewBox="0 0 500.000000 500.000000"
 preserveAspectRatio="xMidYMid meet">
<metadata>
Created by potrace 1.11, written by Peter Selinger 2001-2013
</metadata>
<g transform="translate(0.000000,500.000000) scale(0.100000,-0.100000)"
fill="#000000" stroke="none">
<path d="M3920 4909 c-102 -38 -221 -82 -265 -98 -44 -16 -174 -63 -290 -106
-115 -43 -293 -108 -395 -145 -102 -38 -216 -80 -254 -94 -38 -14 -74 -30 -79
-35 -13 -13 -12 -380 1 -393 6 -6 32 -1 73 15 35 13 129 48 209 77 80 28 154
56 165 61 11 5 164 61 340 125 176 64 361 131 410 149 239 87 309 115 314 124
5 8 7 331 2 379 -2 22 -43 12 -231 -59z"/>
<path d="M2329 4376 c-2 -2 -34 -6 -71 -10 -362 -34 -739 -236 -986 -529 -198
-235 -309 -479 -357 -787 -20 -126 -12 -399 14 -520 69 -311 205 -565 421
-780 135 -136 259 -225 425 -305 213 -104 418 -150 665 -150 169 0 260 12 408
51 378 101 709 351 916 691 31 51 56 95 56 98 0 2 14 33 30 67 30 62 85 221
95 275 2 15 9 43 14 61 5 18 10 35 10 37 -1 3 2 39 6 80 11 118 11 205 0 206
-12 2 3 5 -193 -47 -90 -24 -165 -44 -167 -44 -7 0 -17 -38 -22 -80 -6 -60
-39 -188 -67 -264 -58 -153 -144 -286 -265 -407 -282 -281 -666 -396 -1061
-318 -68 14 -209 63 -273 95 -53 27 -186 116 -231 154 -258 221 -409 544 -409
875 0 115 10 198 33 285 7 25 14 53 16 63 6 31 77 190 110 248 182 310 504
520 869 564 28 3 54 10 59 15 8 8 13 357 5 364 -8 7 -45 16 -50 12z"/>
<path d="M4070 4255 c-19 -8 -258 -95 -530 -195 -742 -272 -893 -329 -903
-339 -12 -12 -12 -380 1 -393 9 -9 99 24 1072 382 168 62 334 123 369 136 35
12 67 27 70 32 5 8 7 356 2 385 -2 11 -42 7 -81 -8z"/>
<path d="M4025 3565 c-49 -19 -171 -64 -270 -100 -99 -37 -191 -71 -205 -75
-14 -5 -54 -20 -90 -33 -110 -42 -559 -207 -670 -247 -58 -21 -117 -43 -132
-50 -31 -15 -29 0 -29 -205 0 -206 0 -205 15 -205 8 0 67 20 133 44 65 24 219
81 343 126 124 45 385 141 580 213 195 71 375 137 398 145 24 8 47 23 51 33 5
15 7 326 2 377 -2 18 -26 14 -126 -23z"/>
<path d="M1252 908 c-281 -32 -443 -244 -400 -527 24 -160 165 -311 323 -347
63 -14 221 -13 285 2 76 18 180 62 181 78 1 16 1 169 0 184 -1 10 -8 8 -28 -6
-80 -55 -202 -91 -295 -87 -146 6 -235 91 -246 235 -8 122 37 213 128 258 45
22 70 27 138 29 92 2 155 -13 243 -57 l55 -28 -2 96 c-1 53 -2 100 -3 104 0 4
-25 15 -53 26 -110 40 -213 53 -326 40z"/>
<path d="M1750 467 l0 -433 103 2 c56 1 105 2 109 3 3 0 6 74 7 164 0 89 0
177 0 195 l1 34 64 -79 c35 -43 108 -132 162 -198 l99 -119 108 -1 c99 -1 110
1 123 19 l15 21 17 -20 c15 -18 29 -20 104 -20 l86 0 34 82 c20 51 38 83 48
84 18 1 318 1 340 0 14 -1 70 -128 70 -158 0 -7 42 -10 115 -10 88 0 115 3
115 13 0 7 -11 39 -24 71 -13 32 -42 105 -64 163 -68 177 -119 308 -180 465
l-59 150 -127 0 -127 0 -70 -160 c-39 -88 -104 -239 -146 -335 -41 -96 -86
-198 -99 -227 -13 -28 -24 -56 -24 -62 0 -32 -28 -8 -116 102 -114 140 -115
142 -183 222 -28 33 -51 62 -51 65 1 4 182 243 258 339 51 64 55 61 -76 61
-140 0 -107 25 -286 -213 -91 -122 -126 -161 -127 -145 0 13 0 98 -1 191 l0
167 -109 0 -109 0 0 -433z m1278 158 c6 -16 22 -61 37 -100 14 -38 35 -94 45
-122 l19 -53 -125 2 c-68 1 -123 5 -122 9 53 138 125 306 129 301 4 -4 11 -20
17 -37z"/>
<path d="M3339 883 c-1 -21 -1 -123 0 -138 1 -6 55 -10 144 -10 l142 0 0 -350
0 -350 115 0 115 0 1 345 c1 190 2 347 3 350 0 3 58 5 129 5 70 -1 132 1 139
3 8 2 11 30 11 83 l0 79 -399 0 c-373 0 -399 -1 -400 -17z"/>
</g>
</svg>
