<?xml version="1.0" encoding="utf-8"?>
<!-- Generator: Adobe Illustrator 18.0.0, SVG Export Plug-In . SVG Version: 6.00 Build 0)  -->
<!DOCTYPE svg PUBLIC "-//W3C//DTD SVG 1.1//EN" "http://www.w3.org/Graphics/SVG/1.1/DTD/svg11.dtd">
<svg version="1.1" id="Layer_1" xmlns="http://www.w3.org/2000/svg" xmlns:xlink="http://www.w3.org/1999/xlink" x="0px" y="0px"
	 viewBox="0 0 204 78" enable-background="new 0 0 204 78" xml:space="preserve">
<g>
	<rect fill="#F8981D" width="61" height="61"/>
	<rect x="63" fill="#4987C7" width="141" height="61"/>
	<path fill="#FFFFFF" d="M29.2,51L44.4,9.3H22L6.8,51H29.2z M35.1,43.3L32.3,51h19.5l2.8-7.7H35.1z"/>
	<g>
		<path fill="#FFFFFF" d="M83.6,26.8c-1.5,0-2.7-0.3-3.7-0.9c-1-0.6-1.9-1.4-2.6-2.3l1.8-1c0.5,0.7,1.1,1.3,1.9,1.7
			c0.8,0.4,1.7,0.7,2.6,0.7c0.8,0,1.6-0.1,2.4-0.4c0.7-0.3,1.4-0.7,2-1.2c0.6-0.5,1-1.2,1.4-1.9c0.3-0.7,0.6-1.6,0.6-2.4h-9.1v-1.8
			h9.1c-0.1-0.8-0.4-1.6-0.7-2.3c-0.4-0.7-0.8-1.3-1.4-1.8c-0.5-0.5-1.2-0.9-1.9-1.2c-0.7-0.3-1.5-0.4-2.3-0.4
			c-0.9,0-1.8,0.2-2.6,0.7c-0.8,0.5-1.4,1-1.9,1.7l-1.7-1c0.3-0.5,0.7-0.9,1.1-1.3c0.4-0.4,0.9-0.7,1.4-1c0.5-0.3,1.1-0.5,1.7-0.7
			c0.6-0.2,1.3-0.2,2-0.2c1.2,0,2.3,0.2,3.3,0.6c1,0.4,1.9,1,2.7,1.8c0.8,0.8,1.4,1.7,1.8,2.7c0.4,1.1,0.7,2.2,0.7,3.5
			c0,1.3-0.2,2.4-0.7,3.5c-0.4,1.1-1,2-1.8,2.7c-0.8,0.8-1.7,1.3-2.7,1.8S84.8,26.8,83.6,26.8z"/>
		<path fill="#FFFFFF" d="M93.3,25c0.5,0,0.9-0.1,1.3-0.3c0.4-0.2,0.7-0.5,1.1-1c0.3-0.5,0.6-1.2,0.8-2c0.2-0.9,0.4-2,0.6-3.4l1-8.3
			h10.1v16.6h-2.1V11.8h-6.2l-0.8,6.6c-0.2,1.8-0.5,3.3-0.9,4.4c-0.4,1.1-0.8,2-1.3,2.5c-0.5,0.6-1,1-1.7,1.2
			c-0.6,0.2-1.3,0.3-2,0.3V25z"/>
		<path fill="#FFFFFF" d="M112.1,26.5V9.9H123v1.8h-8.8v5.3h8.6V19h-8.6v5.7h8.8v1.8H112.1z"/>
		<path fill="#FFFFFF" d="M140.4,26.5V12.9l-5.6,13.7h-0.8l-5.6-13.7v13.7h-2.1V9.9h3l5.1,12.5l5.2-12.5h3v16.6H140.4z"/>
		<path fill="#FFFFFF" d="M146.4,26.5V9.9h10.9v1.8h-8.8v5.3h8.6V19h-8.6v5.7h8.8v1.8H146.4z"/>
		<path fill="#FFFFFF" d="M172.3,26.5v-7.6h-9.7v7.6h-2.1V9.9h2.1v7.1h9.7V9.9h2.1v16.6H172.3z"/>
		<path fill="#FFFFFF" d="M182.3,26.5V11.8h-5.2V9.9h12.6v1.8h-5.3v14.7H182.3z"/>
		<path fill="#FFFFFF" d="M77.4,49.7c0.5,0,0.9-0.1,1.3-0.3c0.4-0.2,0.7-0.5,1.1-1c0.3-0.5,0.6-1.2,0.8-2c0.2-0.9,0.4-2,0.6-3.4
			l1-8.3h10.1v16.6h-2.1V36.5H84l-0.8,6.6c-0.2,1.8-0.5,3.3-0.9,4.4c-0.4,1.1-0.8,2-1.3,2.5c-0.5,0.6-1,1-1.7,1.2
			c-0.6,0.2-1.3,0.3-2,0.3V49.7z"/>
		<path fill="#FFFFFF" d="M96.2,51.2V34.6h2.1v13l9.5-13h2.1v16.6h-2.1V38l-9.7,13.2H96.2z"/>
		<path fill="#FFFFFF" d="M118.9,51.5c-0.7,0-1.4-0.1-2.1-0.2c-0.6-0.1-1.2-0.3-1.8-0.6c-0.5-0.2-1-0.5-1.4-0.9s-0.7-0.7-1-1.1
			l1.2-1.3c0.5,0.6,1.2,1.2,2.1,1.6c0.9,0.4,1.9,0.6,2.9,0.6c1.3,0,2.3-0.3,3.1-0.8c0.7-0.6,1.1-1.3,1.1-2.3c0-0.5-0.1-1-0.3-1.3
			c-0.2-0.4-0.5-0.7-0.9-0.9c-0.4-0.2-0.8-0.4-1.4-0.5s-1.1-0.2-1.7-0.2h-3.4v-1.8h3.4c0.5,0,1.1-0.1,1.6-0.2
			c0.5-0.1,0.9-0.3,1.3-0.5c0.4-0.2,0.7-0.5,0.9-0.8c0.2-0.3,0.3-0.8,0.3-1.2c0-0.5-0.1-0.9-0.3-1.2c-0.2-0.3-0.5-0.6-0.9-0.9
			c-0.4-0.2-0.8-0.4-1.3-0.5c-0.5-0.1-1-0.2-1.5-0.2c-1.9,0-3.4,0.7-4.7,2l-1.1-1.3c0.6-0.7,1.5-1.3,2.5-1.8s2.2-0.7,3.5-0.7
			c0.8,0,1.6,0.1,2.3,0.3c0.7,0.2,1.4,0.5,1.9,0.9s1,0.8,1.3,1.4c0.3,0.6,0.5,1.2,0.5,1.9c0,0.6-0.1,1.1-0.3,1.6
			c-0.2,0.4-0.5,0.8-0.9,1.1c-0.3,0.3-0.7,0.6-1.2,0.8s-0.8,0.3-1.2,0.4c0.4,0,0.8,0.1,1.2,0.3c0.4,0.2,0.9,0.4,1.2,0.8
			c0.4,0.3,0.7,0.7,1,1.2c0.3,0.5,0.4,1.1,0.4,1.7c0,0.7-0.1,1.3-0.4,1.9c-0.3,0.6-0.7,1.1-1.3,1.5c-0.5,0.4-1.2,0.8-2,1
			S119.8,51.5,118.9,51.5z"/>
		<path fill="#FFFFFF" d="M128.3,51.2V34.6h2.1v13l9.5-13h2.1v16.6H140V38l-9.7,13.2H128.3z"/>
		<path fill="#FFFFFF" d="M157.7,51.2v-7.6H148v7.6H146V34.6h2.1v7.1h9.7v-7.1h2.1v16.6H157.7z"/>
		<path fill="#FFFFFF" d="M163.7,51.2V34.6h10.9v1.8h-8.8v14.7H163.7z"/>
	</g>
	<g>
		<path fill="#4987C7" d="M7.1,74.6V68H2.8v6.5H1.9v-7.3H8v7.3H7.1z"/>
		<path fill="#4987C7" d="M16.1,74.6v-7.3H19c0.4,0,0.7,0.1,1,0.2c0.3,0.1,0.5,0.3,0.7,0.5s0.3,0.4,0.4,0.7c0.1,0.3,0.2,0.6,0.2,0.9
			s-0.1,0.6-0.2,0.9c-0.1,0.3-0.3,0.5-0.5,0.7s-0.4,0.4-0.7,0.5s-0.6,0.2-1,0.2h-2v2.9H16.1z M18.9,70.8c0.4,0,0.8-0.1,1.1-0.4
			c0.3-0.3,0.4-0.6,0.4-1s-0.1-0.8-0.4-1c-0.3-0.3-0.6-0.4-1.1-0.4H17v2.8H18.9z"/>
		<path fill="#4987C7" d="M32.3,74.7c-0.5,0-1-0.1-1.5-0.3c-0.4-0.2-0.8-0.5-1.1-0.8c-0.3-0.3-0.6-0.7-0.7-1.2
			c-0.2-0.5-0.3-1-0.3-1.5s0.1-1,0.3-1.5c0.2-0.5,0.4-0.9,0.7-1.2c0.3-0.3,0.7-0.6,1.1-0.8s0.9-0.3,1.5-0.3c0.5,0,1,0.1,1.5,0.3
			s0.8,0.5,1.1,0.8c0.3,0.3,0.6,0.7,0.7,1.2c0.2,0.5,0.3,1,0.3,1.5s-0.1,1-0.3,1.5c-0.2,0.5-0.4,0.9-0.7,1.2
			c-0.3,0.3-0.7,0.6-1.1,0.8C33.3,74.6,32.8,74.7,32.3,74.7z M32.3,73.9c0.4,0,0.8-0.1,1.1-0.2s0.6-0.4,0.8-0.6
			c0.2-0.3,0.4-0.6,0.5-0.9c0.1-0.4,0.2-0.8,0.2-1.2s-0.1-0.8-0.2-1.2c-0.1-0.4-0.3-0.7-0.5-0.9c-0.2-0.3-0.5-0.5-0.8-0.6
			s-0.7-0.2-1.1-0.2c-0.4,0-0.8,0.1-1.1,0.2s-0.6,0.4-0.9,0.6c-0.2,0.3-0.4,0.6-0.5,0.9c-0.1,0.4-0.2,0.8-0.2,1.2s0.1,0.8,0.2,1.2
			c0.1,0.4,0.3,0.7,0.5,0.9s0.5,0.5,0.9,0.6S31.8,73.9,32.3,73.9z"/>
		<path fill="#4987C7" d="M52.6,67.2v6.5h0.7v2.2h-0.9v-1.4h-8.6v-7.3h0.9v6.5h3v-6.5h0.9v6.5h3v-6.5H52.6z"/>
		<path fill="#4987C7" d="M60.8,74.6v-7.3h4.8V68h-3.9v2.4h3.8v0.8h-3.8v2.5h3.9v0.8H60.8z"/>
		<path fill="#4987C7" d="M89,74.6v-3.4h-4.3v3.4h-0.9v-7.3h0.9v3.2H89v-3.2h0.9v7.3H89z"/>
		<path fill="#4987C7" d="M98,74.6v-7.3h4.8V68h-3.9v2.4h3.8v0.8h-3.8v2.5h3.9v0.8H98z"/>
		<path fill="#4987C7" d="M125.7,67.2V68h-3.9v2.1h2c0.4,0,0.7,0.1,1,0.2c0.3,0.1,0.5,0.3,0.7,0.5c0.2,0.2,0.3,0.4,0.5,0.7
			c0.1,0.3,0.2,0.6,0.2,0.9s-0.1,0.6-0.2,0.9c-0.1,0.3-0.3,0.5-0.4,0.7s-0.4,0.4-0.7,0.5c-0.3,0.1-0.6,0.2-1,0.2h-2.9v-7.3H125.7z
			 M121.8,71v2.8h1.9c0.4,0,0.8-0.1,1.1-0.4s0.4-0.6,0.4-1s-0.1-0.8-0.4-1c-0.3-0.3-0.6-0.4-1.1-0.4H121.8z"/>
		<path fill="#4987C7" d="M134.7,67.2v2.9h2c0.4,0,0.7,0.1,1,0.2c0.3,0.1,0.5,0.3,0.7,0.5c0.2,0.2,0.3,0.4,0.5,0.7
			c0.1,0.3,0.2,0.6,0.2,0.9s-0.1,0.6-0.2,0.9c-0.1,0.3-0.3,0.5-0.4,0.7s-0.4,0.4-0.7,0.5c-0.3,0.1-0.6,0.2-1,0.2h-2.9v-7.3H134.7z
			 M134.7,71v2.8h1.9c0.4,0,0.8-0.1,1.1-0.4s0.4-0.6,0.4-1s-0.1-0.8-0.4-1c-0.3-0.3-0.6-0.4-1.1-0.4H134.7z M139.8,74.6v-7.3h0.9
			v7.3H139.8z"/>
		<path fill="#4987C7" d="M148.8,74.6v-7.3h3.3c0.3,0,0.6,0,0.9,0.1c0.3,0.1,0.5,0.2,0.6,0.4c0.2,0.2,0.3,0.4,0.4,0.6
			c0.1,0.2,0.1,0.5,0.1,0.8c0,0.2,0,0.4-0.1,0.6c-0.1,0.2-0.2,0.4-0.3,0.5c-0.1,0.1-0.3,0.3-0.4,0.4c-0.2,0.1-0.3,0.2-0.5,0.2
			c0.2,0,0.4,0.1,0.6,0.2c0.2,0.1,0.3,0.2,0.5,0.4c0.1,0.2,0.2,0.3,0.3,0.5s0.1,0.4,0.1,0.6c0,0.3,0,0.6-0.1,0.8s-0.2,0.5-0.4,0.6
			s-0.4,0.3-0.7,0.4c-0.3,0.1-0.6,0.1-0.9,0.1H148.8z M151.9,70.4c0.4,0,0.7-0.1,0.9-0.3c0.2-0.2,0.3-0.5,0.3-0.8
			c0-0.3-0.1-0.6-0.3-0.8c-0.2-0.2-0.5-0.3-0.9-0.3h-2.2v2.4H151.9z M152,73.8c0.4,0,0.8-0.1,1-0.3s0.4-0.5,0.4-0.9
			c0-0.2,0-0.3-0.1-0.5c-0.1-0.2-0.1-0.3-0.3-0.4c-0.1-0.1-0.3-0.2-0.4-0.3c-0.2-0.1-0.4-0.1-0.6-0.1h-2.2v2.5H152z"/>
		<path fill="#4987C7" d="M167.4,74.6l-0.6-1.6h-3.7l-0.6,1.6h-1l2.9-7.3h1.1l3,7.3H167.4z M164.9,68.2l-1.6,3.9h3.1L164.9,68.2z"/>
		<path fill="#4987C7" d="M175.7,74.6v-7.3h4.8V68h-3.9v2.4h3.8v0.8h-3.8v2.5h3.9v0.8H175.7z"/>
		<path fill="#4987C7" d="M190.2,74.6V68h-2.3v-0.8h5.6V68h-2.3v6.5H190.2z"/>
		<path fill="#4987C7" d="M201.4,74.7c-0.2,0-0.3-0.1-0.4-0.2s-0.2-0.3-0.2-0.4c0-0.2,0.1-0.3,0.2-0.4s0.3-0.2,0.4-0.2
			c0.2,0,0.3,0.1,0.4,0.2s0.2,0.3,0.2,0.4c0,0.2-0.1,0.3-0.2,0.4S201.6,74.7,201.4,74.7z M201.1,72.5l-0.2-5.3h1l-0.2,5.3H201.1z"/>
	</g>
</g>
<g>
</g>
<g>
</g>
<g>
</g>
<g>
</g>
<g>
</g>
<g>
</g>
</svg>
