<svg id="Слой_1" data-name="Слой 1" xmlns="http://www.w3.org/2000/svg" viewBox="0 0 554 104">
  <defs>
    <style>
      .cls-1 {
        fill: #286ebe;
      }

      .cls-2 {
        fill: #f56920;
      }
    </style>
  </defs>
  <title>logo EP</title>
  <g>
    <path class="cls-1" d="M273.82,481.68q-11.94,0-18.79-5.16c-9.11-6.86-8-21.8-4.21-31.24,5.36-13.51,18.22-19.74,32.3-19.74,10.07,0,24.63,2.45,24.63,15.34,0,16.78-18,18.92-31,18.92a90.77,90.77,0,0,1-10.05-.51c-1.32,8.15,3.94,9.21,10.93,9.31A52.88,52.88,0,0,0,292.79,466c1.36-.37,2.22-.59,3,.72l3.9,8.08c.59,1,.13,1.79-1.38,2.45-7.42,3.27-16.6,4.4-24.51,4.4m69-44.8c-5.1,0-9,2.19-9.93,7.36l-4.65,25a67.73,67.73,0,0,0,9.55.82c5.14,0,13.7-1.4,13.7-8.18,0-5.47-7.89-5.11-11.69-5.11-1.59,0-2.85-.16-2.51-2l.88-4.91c.39-2.15,2.12-2.3,4-2.45,3.2-.26,8.55-1.45,8.55-5.62C350.74,437.86,345.71,436.88,342.82,436.88Zm-28,7.26c2.49-14.39,16.14-18.82,29.16-18.82,8.36,0,23.85,2.09,24.26,13.3.19,5.4-3.79,9.85-8.67,11.66v.51c5.63,1.59,10.3,4.94,10.3,11.25,0,15.65-20.35,19.64-32.43,19.64-8.55,0-18.17-.68-26.14-4-1.54-.64-2-1.46-1.76-3.07ZM387,499.68c-.29,1.69-1.37,1.74-2.89,1.74H371.4c-1.39,0-2.55-.05-2.26-1.74L380.7,433a4.16,4.16,0,0,1,3-3.17c8.37-3.13,17.87-4.09,26.77-4.09,15.41,0,27.42,5.72,27,22.71-.48,20.57-13.36,33-33.68,33a69.33,69.33,0,0,1-13.45-1.23Zm19.86-61.16a39.24,39.24,0,0,0-9.43,1.12l-4.78,27.92a40.74,40.74,0,0,0,9.8,1.12c11.4,0,16.84-8.81,16.84-19.33C419.28,441.45,414.26,438.52,406.84,438.52Zm69.38-.41c-7.69,0-12.58,5.34-14.45,12.38-2.24,8.44-1.82,18.61,9.3,18.61s15.33-11.31,15.33-20.76C486.4,441.75,482.9,438.11,476.22,438.11Zm1.63-12.58c14.77,0,27,6.21,27,22.4,0,22.1-15,34-35.82,33.75-14.16-.15-26.9-5.23-26.9-21.17a39.66,39.66,0,0,1,2.64-14.93C450.36,431.77,463.68,425.53,477.85,425.53Zm61.85,12.27a50.63,50.63,0,0,0-8.17.51l-7,40.4c-.3,1.74-1.27,1.84-2.89,1.84H509.16c-1.39,0-2.69-.14-2.39-1.84l7.67-43.87c.88-5,3.95-7.48,8.92-8.28a113.29,113.29,0,0,1,17.6-1c10.85,0,26,1.35,28.91,14.16a32.56,32.56,0,0,1-.13,12.32l-4.52,26.69c-.3,1.75-1.27,1.84-2.89,1.84H549.76c-1.4,0-2.68-.14-2.39-1.84l4.78-27.61c.55-3.15.93-7.31-1.25-10C548.36,438,543.34,437.81,539.7,437.81Zm138.49.31c-7.49,0-12.71,4.7-15.15,11.5-3.91,10.94-2.11,19.8,11.25,19.59A37.85,37.85,0,0,0,683,468c1.49-9.7,3.06-19.46,5.15-29a55.9,55.9,0,0,0-7.79-.77C679.49,438.13,678.78,438.11,678.19,438.11Zm.88-12.48a121.22,121.22,0,0,1,25.39,2.76c2.11.46,2.77,1.2,2.39,3.27-2.76,14.8-5.35,29.68-7.42,44.59a2.29,2.29,0,0,1-1.88,1.94,97.27,97.27,0,0,1-26.65,3.48c-15,0-27.77-4.65-27.77-20.86a43.34,43.34,0,0,1,2.32-14.68C650.66,431.59,664.33,425.63,679.07,425.63Zm-46,51.51-.25,1.47v.08h0c-.32,1.69-1.24,1.86-2.87,1.86H617.48c-1.84,0-2.5-.66-2.26-2L622,438.93H607.17c-1.69,7.15-3.25,14.35-5.4,21.37-4,13-11.69,19.16-24.76,22.3-1.3.31-3,.37-3.64-1.23L570.47,474c-.74-1.89.15-2.64,1.89-3.27,7.64-2.81,11.07-6,13.89-14.37,2.29-6.78,3.57-15.47,5.59-23.47,1.19-4.7,4-6,8.67-6h34.06c4.64,0,7,1.36,6.16,6.22v0l0,.12Zm92.4,1.37c-.32,1.9-1.21,2-3,2H710.13c-1.84,0-2.62-.68-2.39-2l8.67-49.7c.23-1.3,1.22-1.94,2.89-1.94h12.32c1.69,0,2.7,0,2.39,1.94l-2.89,17.49h22.62l3-17.49c.22-1.3,1.26-1.94,3-1.94H772.1c1.68,0,2.72,0,2.39,1.94l-8.67,49.7c-.33,1.89-1.05,2-2.89,2H750.61c-1.84,0-2.62-.68-2.39-2L751.74,458H729Zm-443.36-40.6c-7,0-12.25,4.11-13.7,10.94a72.58,72.58,0,0,0,13.45-.15c3.66-.42,8.3-1.36,8.3-5.88C290.15,438.6,285.34,437.91,282.11,437.91Z" transform="translate(-248.03 -425.33)"/>
    <path class="cls-2" d="M772.22,498.62c-124.8-23.66-243.29-9.94-369.8,28.89-3.55,1.09-4,2.45.58,1.48,116.68-25,243.38-33.27,368.77-27.82,2.53.11,6.2.19,6.18-.43s-1.15-1.25-5.73-2.12" transform="translate(-248.03 -425.33)"/>
  </g>
  <g>
    <path class="cls-1" d="M793.11,428.09a7.87,7.87,0,1,1-7.92,7.87,7.91,7.91,0,0,1,7.92-7.87m0-1A8.87,8.87,0,1,0,802,436a8.89,8.89,0,0,0-8.92-8.86Z" transform="translate(-248.03 -425.33)"/>
    <path class="cls-1" d="M794.6,436.24a1.62,1.62,0,0,1,.84.55,2.93,2.93,0,0,1,.41.89l.82,2.94a.19.19,0,0,1,0,.14s-.07.07-.15.07h-.77l-.13,0s-.08-.06-.1-.13l-.75-2.69a2.35,2.35,0,0,0-.32-.7,1.54,1.54,0,0,0-.44-.43,1.64,1.64,0,0,0-.56-.22,3.21,3.21,0,0,0-.66-.06h-2.19v4.08a.19.19,0,0,1,0,.15.24.24,0,0,1-.15,0h-.71a.25.25,0,0,1-.15,0,.19.19,0,0,1,0-.15v-8.91a.74.74,0,0,1,.14-.49.65.65,0,0,1,.51-.17h3.17a3.38,3.38,0,0,1,1.2.2,2.65,2.65,0,0,1,.91.56,2.48,2.48,0,0,1,.58.85,2.85,2.85,0,0,1,.2,1.08,2.68,2.68,0,0,1-.42,1.49,2.28,2.28,0,0,1-1.21.93Zm.53-2.4a2.12,2.12,0,0,0-.1-.65,1.51,1.51,0,0,0-.33-.56,1.68,1.68,0,0,0-.6-.39,2.31,2.31,0,0,0-.88-.15h-2.58v3.54h2.5a2,2,0,0,0,1.52-.5A1.79,1.79,0,0,0,795.13,433.84Z" transform="translate(-248.03 -425.33)"/>
  </g>
</svg>
