<svg id="skat_logo" xmlns="http://www.w3.org/2000/svg" viewBox="0 0 155 155"><style>.st0{fill:#db7d43}.st1{fill:#4d59a0}</style><path class="st0" d="M123.4 67.7c0 2.4-.2 4.6-.5 7-3.7 22.8-23.8 39.6-47.3 39.6-26.4 0-47.9-21.1-47.9-46.9 0-22.2 15.9-40.9 37.1-45.8 2.6-.6 5.2-1 7.8-1.1.8 0 1.3.5 1.1 1V31c0 1.1-.3 1.3-1.3 1.3-1.9.2-4 .5-6 1-15.9 4.1-26.9 18.2-26.9 34.3 0 19.5 16.2 35.4 36.1 35.4 18 0 33-13.2 35.6-30 .2-.6.2-1.4.2-2.1.2-.8.5-1.1 1.1-1.4l9.4-2.4c1.4-.7 1.5-1 1.5.6z"/><path class="st1" d="M45.9 146.6c1.6-.5 3.2-1.4 4.9-2.5v6.2c-1.6 1-3.2 1.6-5 2.1-1.8.5-3.6.6-5.3.6-2.1 0-4-.3-5.8-1-1.8-.6-3.2-1.6-4.7-2.7-1.3-1.3-2.4-2.7-3.1-4.4-.6-1.7-1.1-3.5-1.1-5.4 0-4.1 1.5-7.3 4.2-9.8 2.8-2.5 6.5-3.8 11-3.8 1.6 0 3.2.2 4.9.5 1.6.3 3.1 1 4.7 1.6v6.2c-1.3-1-2.9-1.6-4.5-2.2-1.5-.5-2.9-.6-4.5-.6-2.8 0-4.9.8-6.3 2.2-1.6 1.4-2.3 3.5-2.3 6 0 2.4.6 4.4 2.3 5.9 1.5 1.4 3.4 2.2 6 2.2 1.4-.1 3-.4 4.6-1.1zm51.3-20.3l10.4 26.3h-7.1l-1.9-5.1H87l-2.3 5.1H70.8l-10.2-12.4v12.4H54v-26.3h6.8V138l9.1-11.7h7.4l-9.5 12.1 10.7 12.7 11-24.7h7.7zm-.1 16.5l-3.7-10-4.2 10h7.9zm6.3-11.5h9.1v21.4h7v-21.4h8.9v-4.9h-24.9v4.9zm23.8-87.1L82.5 60.4c-1 .5-1.1.6-1.1 1.6v10c0 1 .3 1.1 1.3.6l44.8-16c1.1-.5 1.3-.6 1.3-1.7V45c0-1-.8-1-1.6-.8zm0-42L82.5 18.4c-1 .5-1.1.6-1.1 1.6v10c0 1 .3 1.1 1.3.6l44.8-16c1.1-.3 1.3-.5 1.3-1.7v-10c0-1-.8-1-1.6-.7zm0 21.5L82.5 39.9c-1 .5-1.1.6-1.1 1.6v10c0 1 .3 1.1 1.3.6L127.5 36c1.1-.3 1.3-.5 1.3-1.7v-10c0-.9-.8-.7-1.6-.6z"/></svg>