<svg id="skat_logo" xmlns="http://www.w3.org/2000/svg" viewBox="0 0 155 155"><style>#skat_logo{width:155px;display:block}#skat_logo .st0{fill:#fff}#skat_logo .st1,#skat_logo .st2,.preload #skat_logo .st2{fill:none;stroke:#fff;stroke-width:7.9444;stroke-opacity:.5}#skat_logo .st2,.preload #skat_logo .st2{stroke-opacity:1}#skat_logo .st2{transition:opacity 1s;opacity:0}.preload #skat_logo .st2{opacity:1}#skat_logo .st3{fill:#db7d43}#skat_logo .st4{fill:#4d59a0}</style><circle id="cricle_02" class="st0" cx="78.1" cy="77.5" r="62.9"/><circle id="cricle_01" class="st1" cx="77.5" cy="77.5" r="71.5"/><path id="polum" class="st2" d="M149 77.5C149 38 117 6 77.5 6"><animateTransform accumulate="none" additive="replace" attributeName="transform" calcMode="linear" dur="1s" fill="remove" from="0 77.5 77.5" repeatCount="indefinite" restart="always" to="360 77.5 77.5" type="rotate"/></path><path class="st3" d="M105.8 71.3c0 1.5-.1 2.9-.3 4.4-2.3 14.4-14.7 25-29.2 25-16.3 0-29.6-13.3-29.6-29.6 0-14 9.8-25.8 22.9-28.9 1.6-.4 3.2-.6 4.8-.7.5 0 .8.3.7.6v6c0 .7-.2.8-.8.8-1.2.1-2.5.3-3.7.6C60.8 52.1 54 61 54 71.1c0 12.3 10 22.3 22.3 22.3 11.1 0 20.4-8.3 22-18.9.1-.4.1-.9.1-1.3.1-.5.3-.7.7-.9l5.8-1.5c.8-.3.9-.5.9.5z"/><path class="st4" d="M57.9 121.1c1-.3 2-.9 3-1.6v3.9c-1 .6-2 1-3.1 1.3-1.1.3-2.2.4-3.3.4-1.3 0-2.5-.2-3.6-.6-1.1-.4-2-1-2.9-1.7-.8-.8-1.5-1.7-1.9-2.8-.4-1.1-.7-2.2-.7-3.4 0-2.6.9-4.6 2.6-6.2 1.7-1.6 4-2.4 6.8-2.4 1 0 2 .1 3 .3 1 .2 1.9.6 2.9 1v3.9c-.8-.6-1.8-1-2.8-1.4-.9-.3-1.8-.4-2.8-.4-1.7 0-3 .5-3.9 1.4-1 .9-1.4 2.2-1.4 3.8 0 1.5.4 2.8 1.4 3.7.9.9 2.1 1.4 3.7 1.4 1 0 2-.2 3-.6zm31.7-12.8l6.4 16.6h-4.4l-1.2-3.2h-7.1l-1.4 3.2H73.3l-6.3-7.8v7.8h-4.1v-16.6h4.2v7.4l5.6-7.4h4.6l-5.9 7.6 6.6 8 6.8-15.6h4.8zm-.1 10.4l-2.3-6.3-2.6 6.3h4.9zm3.9-7.3H99v13.5h4.3v-13.5h5.5v-3.1H93.4v3.1zm14.7-54.9L80.5 66.7c-.6.3-.7.4-.7 1V74c0 .6.2.7.8.4l27.7-10.1c.7-.3.8-.4.8-1.1V57c0-.6-.5-.6-1-.5zm0-26.5L80.5 40.2c-.6.3-.7.4-.7 1v6.3c0 .6.2.7.8.4l27.7-10.1c.7-.2.8-.3.8-1.1v-6.3c0-.6-.5-.6-1-.4zm0 13.6L80.5 53.8c-.6.3-.7.4-.7 1v6.3c0 .6.2.7.8.4l27.7-10.2c.7-.2.8-.3.8-1.1v-6.3c0-.5-.5-.4-1-.3z"/></svg>