<?xml version="1.0" encoding="utf-8"?>
<!-- Generator: Adobe Illustrator 24.2.0, SVG Export Plug-In . SVG Version: 6.00 Build 0)  -->
<svg version="1.1" id="Слой_1" xmlns="http://www.w3.org/2000/svg" xmlns:xlink="http://www.w3.org/1999/xlink" x="0px" y="0px"
	 viewBox="0 0 843 146" style="enable-background:new 0 0 843 146;" xml:space="preserve">
<style type="text/css">
	.st0{fill:#FFFFFF;}
	.st1{fill:#F41240;}
</style>
<g>
	<path class="st0" d="M92.9,43h-93v103.4h25.9v-33.6h49.6L98,146.4h29l-25-33.8c7.8-1.2,13.3-4.2,16.7-8.8c3.4-4.7,5.1-12.1,5.1-22
		V74c0-5.9-0.6-10.5-1.7-14.1c-1.1-3.6-2.9-6.7-5.6-9.5c-2.8-2.6-5.9-4.5-9.6-5.7C103.3,43.6,98.6,43,92.9,43z M88.7,90H25.8V65.8
		h62.9c3.6,0,6,0.6,7.3,1.7c1.2,1.1,2,3.1,2,6v8.7c0,3.1-0.8,5.1-2,6.2C94.7,89.5,92.3,90,88.7,90z"/>
	<path class="st0" d="M162,115.8V43h-25.9v72.2c0,5.9,0.5,10.7,1.6,14.3c1.1,3.7,2.9,6.8,5.7,9.5c2.6,2.8,5.7,4.7,9.5,5.7
		c3.7,1.2,8.4,1.7,14.3,1.7h62c5.7,0,10.4-0.5,14.1-1.7c3.7-1.1,6.8-2.9,9.6-5.7c2.6-2.6,4.5-5.7,5.6-9.5c1.1-3.6,1.7-8.4,1.7-14.3
		V43h-25.9v72.9c0,3.1-0.8,5.1-2,6.2c-1.2,1.1-3.7,1.6-7.3,1.6h-53.6c-3.7,0-6.2-0.5-7.4-1.6C162.6,121,162,118.9,162,115.8z"/>
	<path class="st0" d="M347.7,146.4V65.8h50.1V43h-126v22.8h50.1v80.6H347.7z"/>
	<path class="st0" d="M435.3,115.8V43h-25.9v72.2c0,5.9,0.5,10.7,1.6,14.3c1.1,3.7,2.9,6.8,5.7,9.5c2.6,2.8,5.7,4.7,9.5,5.7
		c3.7,1.2,8.4,1.7,14.3,1.7h62c5.7,0,10.4-0.5,14.1-1.7c3.7-1.1,6.8-2.9,9.6-5.7c2.6-2.6,4.5-5.7,5.6-9.5c1.1-3.6,1.7-8.4,1.7-14.3
		V43h-25.9v72.9c0,3.1-0.8,5.1-2,6.2c-1.2,1.1-3.7,1.6-7.3,1.6h-53.6c-3.7,0-6.2-0.5-7.4-1.6C435.9,121,435.3,118.9,435.3,115.8z"/>
	<path class="st0" d="M664.6,73.1v-2c0-9.6-2.5-16.7-7.4-21.2c-5-4.5-12.9-6.8-23.4-6.8h-87.9v103.4h93c10.5,0,18.5-2.2,23.4-6.7
		c5-4.5,7.4-11.6,7.4-21.2v-2.2c0-9.6-2.5-16.4-7.4-20.5c-0.9-0.6-1.9-1.1-2.8-1.6c-0.9-0.5-2.3-1.1-4-1.7c3.4-1.9,5.7-4.3,7.1-7.1
		C663.9,82.7,664.6,78.5,664.6,73.1z M571.8,84.4V65.8h57.8c3.7,0,6.2,0.6,7.4,1.7c1.2,1.1,1.9,3.1,1.9,6v3.1c0,3.1-0.6,5.1-1.9,6.2
		c-1.2,1.1-3.7,1.6-7.4,1.6H571.8z M571.8,123.6V105h63.1c3.6,0,6,0.6,7.3,1.7c1.2,1.1,2,3.1,2,6v3.1c0,3.1-0.8,5.1-2,6.2
		c-1.2,1.1-3.7,1.6-7.3,1.6H571.8z"/>
	<path class="st0" d="M704.9,65.8h84.7V43H679v103.4h114.7v-22.8h-88.8v-17.5h82.6l2-22.8h-84.7V65.8z"/>
	<circle class="st1" cx="824.4" cy="18.6" r="18.1"/>
</g>
</svg>
