<svg id="Слой_1" pointer-events="none" xmlns="http://www.w3.org/2000/svg" viewBox="0 0 200 60"><style>.st0{fill:red}.st1{fill:#fff}.st2{fill:#282828}</style><path class="st0" d="M63 14.9c-.7-2.7-2.8-4.8-5.6-5.6C52.5 8 32.9 8 32.9 8S13.2 8 8.3 9.3c-2.7.7-4.8 2.8-5.6 5.6C1.5 19.8 1.5 30 1.5 30s0 10.2 1.3 15.1c.7 2.7 2.8 4.8 5.6 5.6C13.2 52 32.9 52 32.9 52s19.7 0 24.6-1.3c2.7-.7 4.8-2.8 5.6-5.6 1.3-4.9 1.3-15.1 1.3-15.1s-.1-10.2-1.4-15.1z"/><path class="st1" d="M26.6 39.4L42.9 30l-16.3-9.4v18.8z"/><g><path class="st2" d="M92.7 48c-1.2-.8-2.1-2.1-2.7-3.9s-.8-4.1-.8-7.1v-4c0-3 .3-5.4.9-7.1s1.5-3.1 2.8-3.9 2.9-1.2 5-1.2c2 0 3.7.4 4.9 1.3s2.1 2.1 2.7 3.9.8 4.2.8 7.1v4c0 2.9-.3 5.3-.8 7.1s-1.4 3.1-2.7 3.9c-1.2.8-2.9 1.2-5.1 1.2-2 0-3.8-.4-5-1.3zm7-4.3c.3-.9.5-2.4.5-4.4v-8.6c0-2-.2-3.4-.5-4.3-.3-.9-.9-1.4-1.8-1.4-.8 0-1.4.5-1.8 1.4-.3.9-.5 2.4-.5 4.3v8.6c0 2 .2 3.5.5 4.4.3.9.9 1.3 1.8 1.3.8.1 1.4-.4 1.8-1.3zm88.5-6.6v1.4c0 1.8.1 3.1.2 4 .1.9.3 1.5.6 1.9.3.4.8.6 1.5.6.9 0 1.6-.4 1.9-1.1s.5-1.9.6-3.6l5.4.3v1c0 2.5-.7 4.5-2.1 5.7s-3.4 1.9-5.9 1.9c-3.1 0-5.2-1-6.4-2.9-1.2-1.9-1.8-4.9-1.8-8.9v-4.8c0-4.1.6-7.1 1.9-9.1 1.3-1.9 3.4-2.9 6.5-2.9 2.1 0 3.8.4 4.9 1.2s1.9 2 2.4 3.6.7 3.9.7 6.8v4.7l-10.4.2zm.7-11.6c-.3.4-.5 1-.6 1.9s-.2 2.2-.2 4v2h4.5v-2c0-1.8-.1-3.1-.2-4s-.3-1.6-.6-1.9-.8-.6-1.5-.6c-.6 0-1 .2-1.4.6zM77.6 36.6l-7.1-25.5h6.2l2.5 11.6c.6 2.9 1.1 5.3 1.4 7.3h.2c.2-1.4.7-3.9 1.4-7.2l2.6-11.6H91l-7.1 25.5v12.2h-6.1V36.6zm48.8-15.3v27.6h-4.8l-.5-3.4h-.1c-1.3 2.5-3.3 3.8-5.9 3.8-1.8 0-3.2-.6-4.1-1.8s-1.3-3.1-1.3-5.6V21.3h6.2v20.2c0 1.2.1 2.1.4 2.6s.7.8 1.3.8c.5 0 1.1-.2 1.6-.5s.9-.8 1.1-1.3V21.3h6.1zm31.9 0v27.6h-4.9l-.5-3.4h-.1c-1.3 2.5-3.3 3.8-5.9 3.8-1.8 0-3.2-.6-4.1-1.8-.9-1.2-1.3-3.1-1.3-5.6V21.3h6.2v20.2c0 1.2.1 2.1.4 2.6s.7.8 1.4.8c.5 0 1.1-.2 1.6-.5s.9-.8 1.1-1.3V21.3h6.1z"/><path class="st2" d="M143.3 16.1h-6.2v32.7H131V16.1h-6.2v-5h18.4l.1 5zm35.5 9.6c-.4-1.7-1-3-1.8-3.8-.8-.8-2-1.2-3.5-1.2-1.1 0-2.2.3-3.2 1-1 .6-1.8 1.5-2.3 2.5V9.7h-6v39.1h5.1l.6-2.6h.1c.5.9 1.2 1.7 2.2 2.2s2 .8 3.2.8c2.1 0 3.6-1 4.6-2.9s1.5-5 1.5-9.1v-4.4c.1-3-.1-5.4-.5-7.1zm-5.7 11.2c0 2-.1 3.6-.3 4.7-.2 1.1-.4 2-.8 2.4s-.9.7-1.6.7c-.5 0-1-.1-1.4-.4-.4-.2-.8-.6-1.1-1.1V27.7c.2-.8.6-1.4 1.1-1.8s1.1-.7 1.7-.7c.6 0 1.1.3 1.5.7.3.5.6 1.3.7 2.5.1 1.2.2 2.8.2 5v3.5z"/></g></svg>