<?xml version="1.0" encoding="utf-8"?>
<!-- Generator: Adobe Illustrator 21.0.0, SVG Export Plug-In . SVG Version: 6.00 Build 0)  -->
<svg version="1.1" id="lizing" xmlns="http://www.w3.org/2000/svg" xmlns:xlink="http://www.w3.org/1999/xlink" x="0px" y="0px"
	 viewBox="0 0 388.1 350" style="enable-background:new 0 0 388.1 350;" xml:space="preserve">
<path d="M73.5,2.2C67.9,5.1,4.9,68.3,2.1,73.7L0,77.9v127.8v127.8v3.3C0,345,7.3,350,14.8,350h1.7h121h121h7.1
	c7.8,0,9.2-4.8,9.3-10.8v-5.6v-54.8c0-30.1-0.2-54.8-0.5-54.8c-0.2,0-5.9,5.4-12.5,12l-12,12v35.6v35.6c0,0,0.3,2.3-1.3,4
	c-1.7,1.7-4.5,1.8-4.5,1.8H137.7H33.3c0,0-4.3,0.1-6.3-2.5s-2-6.3-2-6.3V203.9V88l45,0.5c12,0.5,17.7-6.8,17.6-17.3L88,25h77.9h77.9
	c0,0,3.6-0.2,4.7,1.2c1.2,1.5,0.9,3.7,0.9,3.7l0.5,48.3l0.5,48.3l12.3-12.2L275,102V59.2V16.5l-0.2-4.3C274.8,5.4,272.2,0,264.5,0
	h-6L168,0C78,0.1,77.5,0.1,73.5,2.2"/>
<path d="M162,37.6l0,8.7c0,0-2.5,1-5,2.3c-9.8,5-13.2,11.4-11.6,21.6c0.9,5.8,12,12.1,19.2,15.9c2,1,10,3.9,11.9,5.9
	c7.8,8.6-9.9,16.5-22.4,10.1c-5.8-3-7.2-2.6-9.3,2.3c-3.2,7.7-2.5,8.4,9.5,11.3l7.7,1.8v3.8v3.8h6.4h6.4l0.2-8.7
	c0,0,3.2-0.8,6.6-2.1c9.4-4.4,13.1-11.3,12-22c-0.9-8.3-6.5-13-23.2-19.3c-7.5-2.8-9.5-4.5-9.5-8c0-5.6,10.7-8.8,18.4-5.6
	c6.7,2.8,9,2.2,10.4-2.6c0.7-2.3,1.5-4.8,1.7-5.4c0.7-1.7-7.9-5.4-12.5-5.4c-2,0-4.1,0-4.1,0l0-8.4"/>
<path d="M340.3,63.6c-3.4,1.2-15.6,12.8-66.8,64.1l-62.6,62.6l17.8,17.8c9.8,9.8,18.1,17.8,18.4,17.8c0.4,0,22-21.4,48.2-47.5
	c52.3-52.2,48.3-49.2,54.1-42.4c2,2.4,2.4,3.4,1.5,4.5c-0.6,0.7-14.1,14.3-30,30.2c-29.4,29.4-31.1,31.5-29.2,36.9
	c1.8,5.4,8.7,3.1,20-6.7c1.6-1.4,6.8-5.8,11.6-9.8s22.7-20.5,28.2-25.8c5.5-5.3,15.3-14.6,21.8-20.8c6.5-6.2,12.5-12.4,13.3-13.9
	c6-11.5-7.5-18.7-16.8-9l-4.1,4.3l-4.6-4.6l-4.6-4.6l7-6.8c9.7-9.5,11.5-13.1,11.5-22.7C375,68.8,358.2,57.3,340.3,63.6"/>
<polygon points="61.4,162.5 137.5,162.5 212.5,162.5 212.8,156.3 213.1,150 137.5,150 61.4,150 "/>
<path d="M61.5,187.5l64.2,0.3l63.2,0.3l6.1-6c3.4-3.3,6.1-6.2,6.1-6.5c0-0.3-31.3-0.5-69.5-0.5H61.4L61.5,187.5z"/>
<path d="M61.4,212.5h104.8c0,0,11.8-10.3,14.3-12.3c0.1-0.1-0.1-0.2-0.1-0.2l-119.1,0V212.5z"/>
<path d="M189.8,211.2c-5.9,6-10.8,11.4-10.8,11.8s-0.6,1.2-1.4,1.7c-0.8,0.4-3.8,3.7-6.6,7.3c-2.9,3.6-5.5,6.7-5.8,7
	c-0.3,0.3-1.1,1.3-1.6,2.2s-2.8,4.3-5,7.5c-4.3,6.3-5.3,8-9.5,16.3c-3.8,7.5-6,14.6-6,19.3c0,7.3-8.3,3.4-13-6.1
	c-5.5-11.2-12.4-13.6-19.4-6.6c-2,2-3.7,4.1-3.7,4.6s-0.8,2-1.9,3.3l-1.9,2.4l-0.6-3.7c-0.3-2-0.6-6.2-0.6-9.2
	c-0.1-9.2-2.6-24.8-4.4-26.5c-0.9-0.9-1.6-1.9-1.6-2.3c0-1.3-5.5-3.2-9.4-3.2c-15.1,0-24.4,15.9-24.6,42.1
	C62,291.2,73.9,292,75.4,280c2.1-16.6,8.7-33,11-27.3c0.4,1,1.2,10.3,1.7,20.8c1.3,25.6,3.7,29.4,16.3,26.1c2.2-0.6,9.5-6.9,9.6-8.3
	c0-0.4,1.1-2.1,2.3-3.6l2.3-2.8l2.4,3.8c6.8,10.4,21.2,14.8,27.3,8.4c2.2-2.3,4-3,8.4-3.5c5-0.6,12.8-3.1,17.2-5.7
	c0.8-0.5,2.9-1.6,4.5-2.4s4.4-2.4,6-3.5c1.6-1.1,4.2-2.7,5.8-3.5c1.5-0.9,5.4-3.8,5.9-4.3c0.4-0.4,2.8-2.4,5.6-4.6
	c2.9-2.1,8.9-7,10.6-8.7c11.5-11.1,23.3-22.9,24.5-24.4c1.6-1.9-31.7-36.7-34.9-36.5C201.2,200.2,195.7,205.2,189.8,211.2"/>
</svg>
