<?xml version="1.0" encoding="utf-8"?>
<!-- Generator: Adobe Illustrator 22.0.1, SVG Export Plug-In . SVG Version: 6.00 Build 0)  -->
<svg version="1.1" id="skat_logo" xmlns="http://www.w3.org/2000/svg" xmlns:xlink="http://www.w3.org/1999/xlink" x="0px" y="0px"
	 viewBox="0 0 155 155" style="enable-background:new 0 0 155 155;" xml:space="preserve">
<style type="text/css">
	.st0{fill:#DB7D43;}
	.st1{fill:#4D59A0;}
</style>
<path class="st0" d="M123.4,67.7c0,2.4-0.2,4.6-0.5,7c-3.7,22.8-23.8,39.6-47.3,39.6c-26.4,0-47.9-21.1-47.9-46.9
	c0-22.2,15.9-40.9,37.1-45.8c2.6-0.6,5.2-1,7.8-1.1c0.8,0,1.3,0.5,1.1,1v9.5c0,1.1-0.3,1.3-1.3,1.3c-1.9,0.2-4,0.5-6,1
	c-15.9,4.1-26.9,18.2-26.9,34.3c0,19.5,16.2,35.4,36.1,35.4c18,0,33-13.2,35.6-30c0.2-0.6,0.2-1.4,0.2-2.1c0.2-0.8,0.5-1.1,1.1-1.4
	l9.4-2.4C123.3,66.4,123.4,66.1,123.4,67.7L123.4,67.7z"/>
<path class="st1" d="M45.9,146.6c1.6-0.5,3.2-1.4,4.9-2.5v6.2l0,0c-1.6,1-3.2,1.6-5,2.1c-1.8,0.5-3.6,0.6-5.3,0.6
	c-2.1,0-4-0.3-5.8-1c-1.8-0.6-3.2-1.6-4.7-2.7c-1.3-1.3-2.4-2.7-3.1-4.4c-0.6-1.7-1.1-3.5-1.1-5.4c0-4.1,1.5-7.3,4.2-9.8
	c2.8-2.5,6.5-3.8,11-3.8c1.6,0,3.2,0.2,4.9,0.5c1.6,0.3,3.1,1,4.7,1.6v6.2c-1.3-1-2.9-1.6-4.5-2.2c-1.5-0.5-2.9-0.6-4.5-0.6
	c-2.8,0-4.9,0.8-6.3,2.2c-1.6,1.4-2.3,3.5-2.3,6c0,2.4,0.6,4.4,2.3,5.9c1.5,1.4,3.4,2.2,6,2.2C42.7,147.6,44.3,147.3,45.9,146.6z
	 M97.2,126.3l10.4,26.3h-7.1l-1.9-5.1H87l-2.3,5.1h-5.2h-1.9h-6.8l-10.2-12.4v12.4H54v-26.3h6.8v11.7l9.1-11.7h7.4l-9.5,12.1
	l10.7,12.7l11-24.7H97.2z M97.1,142.8l-3.7-10l-4.2,10H97.1z M103.4,131.3h9.1v21.4h7v-21.4h8.9v-4.9h-24.9V131.3z M127.2,44.2
	L82.5,60.4l0,0c-1,0.5-1.1,0.6-1.1,1.6v10c0,1,0.3,1.1,1.3,0.6l44.8-16c1.1-0.5,1.3-0.6,1.3-1.7V45C128.8,44,128,44,127.2,44.2z
	 M127.2,2.2L82.5,18.4c-1,0.5-1.1,0.6-1.1,1.6v10c0,1,0.3,1.1,1.3,0.6l44.8-16c1.1-0.3,1.3-0.5,1.3-1.7v-10
	C128.8,1.9,128,1.9,127.2,2.2z M127.2,23.7L82.5,39.9c-1,0.5-1.1,0.6-1.1,1.6v10c0,1,0.3,1.1,1.3,0.6L127.5,36
	c1.1-0.3,1.3-0.5,1.3-1.7v-10C128.8,23.4,128,23.6,127.2,23.7z"/>
</svg>
