<?xml version="1.0" encoding="utf-8"?>
<!-- Generator: Adobe Illustrator 22.0.1, SVG Export Plug-In . SVG Version: 6.00 Build 0)  -->
<svg version="1.1" id="Слой_1" pointer-events="none"
	 xmlns="http://www.w3.org/2000/svg" xmlns:xlink="http://www.w3.org/1999/xlink" x="0px" y="0px" viewBox="0 0 200 60"
	 style="enable-background:new 0 0 200 60;" xml:space="preserve">
<style type="text/css">
	.st0{fill:#FF0000;}
	.st1{fill:#FFFFFF;}
	.st2{fill:#282828;}
</style>
<g>
	<g>
		<path class="st0" d="M63,14.9c-0.7-2.7-2.8-4.8-5.6-5.6C52.5,8,32.9,8,32.9,8S13.2,8,8.3,9.3c-2.7,0.7-4.8,2.8-5.6,5.6
			C1.5,19.8,1.5,30,1.5,30s0,10.2,1.3,15.1c0.7,2.7,2.8,4.8,5.6,5.6C13.2,52,32.9,52,32.9,52s19.7,0,24.6-1.3
			c2.7-0.7,4.8-2.8,5.6-5.6c1.3-4.9,1.3-15.1,1.3-15.1S64.3,19.8,63,14.9z"/>
		<path class="st1" d="M26.6,39.4L42.9,30l-16.3-9.4V39.4z"/>
	</g>
	<g>
		<path class="st2" d="M92.7,48c-1.2-0.8-2.1-2.1-2.7-3.9s-0.8-4.1-0.8-7.1v-4c0-3,0.3-5.4,0.9-7.1s1.5-3.1,2.8-3.9s2.9-1.2,5-1.2
			c2,0,3.7,0.4,4.9,1.3s2.1,2.1,2.7,3.9s0.8,4.2,0.8,7.1v4c0,2.9-0.3,5.3-0.8,7.1s-1.4,3.1-2.7,3.9c-1.2,0.8-2.9,1.2-5.1,1.2
			C95.7,49.3,93.9,48.9,92.7,48z M99.7,43.7c0.3-0.9,0.5-2.4,0.5-4.4v-8.6c0-2-0.2-3.4-0.5-4.3c-0.3-0.9-0.9-1.4-1.8-1.4
			c-0.8,0-1.4,0.5-1.8,1.4c-0.3,0.9-0.5,2.4-0.5,4.3v8.6c0,2,0.2,3.5,0.5,4.4c0.3,0.9,0.9,1.3,1.8,1.3
			C98.7,45.1,99.3,44.6,99.7,43.7z M188.2,37.1v1.4c0,1.8,0.1,3.1,0.2,4c0.1,0.9,0.3,1.5,0.6,1.9c0.3,0.4,0.8,0.6,1.5,0.6
			c0.9,0,1.6-0.4,1.9-1.1s0.5-1.9,0.6-3.6l5.4,0.3c0,0.2,0,0.6,0,1c0,2.5-0.7,4.5-2.1,5.7s-3.4,1.9-5.9,1.9c-3.1,0-5.2-1-6.4-2.9
			c-1.2-1.9-1.8-4.9-1.8-8.9v-4.8c0-4.1,0.6-7.1,1.9-9.1c1.3-1.9,3.4-2.9,6.5-2.9c2.1,0,3.8,0.4,4.9,1.2s1.9,2,2.4,3.6
			c0.5,1.6,0.7,3.9,0.7,6.8v4.7L188.2,37.1L188.2,37.1z M188.9,25.5c-0.3,0.4-0.5,1-0.6,1.9s-0.2,2.2-0.2,4v2h4.5v-2
			c0-1.8-0.1-3.1-0.2-4s-0.3-1.6-0.6-1.9s-0.8-0.6-1.5-0.6C189.7,24.9,189.3,25.1,188.9,25.5L188.9,25.5z M77.6,36.6l-7.1-25.5h6.2
			l2.5,11.6c0.6,2.9,1.1,5.3,1.4,7.3h0.2c0.2-1.4,0.7-3.9,1.4-7.2l2.6-11.6h6.2l-7.1,25.5v12.2h-6.1V36.6z M126.4,21.3v27.6h-4.8
			l-0.5-3.4h-0.1c-1.3,2.5-3.3,3.8-5.9,3.8c-1.8,0-3.2-0.6-4.1-1.8s-1.3-3.1-1.3-5.6V21.3h6.2v20.2c0,1.2,0.1,2.1,0.4,2.6
			s0.7,0.8,1.3,0.8c0.5,0,1.1-0.2,1.6-0.5c0.5-0.3,0.9-0.8,1.1-1.3V21.3C120.2,21.3,126.4,21.3,126.4,21.3z M158.3,21.3v27.6h-4.9
			l-0.5-3.4h-0.1c-1.3,2.5-3.3,3.8-5.9,3.8c-1.8,0-3.2-0.6-4.1-1.8c-0.9-1.2-1.3-3.1-1.3-5.6V21.3h6.2v20.2c0,1.2,0.1,2.1,0.4,2.6
			s0.7,0.8,1.4,0.8c0.5,0,1.1-0.2,1.6-0.5s0.9-0.8,1.1-1.3V21.3C152.1,21.3,158.3,21.3,158.3,21.3z"/>
		<path class="st2" d="M143.3,16.1h-6.2v32.7h-6.1V16.1h-6.2v-5h18.4L143.3,16.1L143.3,16.1z M178.8,25.7c-0.4-1.7-1-3-1.8-3.8
			c-0.8-0.8-2-1.2-3.5-1.2c-1.1,0-2.2,0.3-3.2,1c-1,0.6-1.8,1.5-2.3,2.5H168V9.7h-6v39.1h5.1l0.6-2.6h0.1c0.5,0.9,1.2,1.7,2.2,2.2
			s2,0.8,3.2,0.8c2.1,0,3.6-1,4.6-2.9s1.5-5,1.5-9.1v-4.4C179.4,29.8,179.2,27.4,178.8,25.7z M173.1,36.9c0,2-0.1,3.6-0.3,4.7
			c-0.2,1.1-0.4,2-0.8,2.4s-0.9,0.7-1.6,0.7c-0.5,0-1-0.1-1.4-0.4c-0.4-0.2-0.8-0.6-1.1-1.1V27.7c0.2-0.8,0.6-1.4,1.1-1.8
			s1.1-0.7,1.7-0.7c0.6,0,1.1,0.3,1.5,0.7c0.3,0.5,0.6,1.3,0.7,2.5c0.1,1.2,0.2,2.8,0.2,5L173.1,36.9L173.1,36.9z"/>
	</g>
</g>
</svg>
