<?xml version="1.0" encoding="utf-8"?>
<!-- Generator: Adobe Illustrator 21.0.0, SVG Export Plug-In . SVG Version: 6.00 Build 0)  -->
<svg version="1.1" id="grant" xmlns="http://www.w3.org/2000/svg" xmlns:xlink="http://www.w3.org/1999/xlink" x="0px" y="0px"
	 viewBox="0 0 500 500" style="enable-background:new 0 0 500 500;" xml:space="preserve">
<style type="text/css">
	.st0{fill-rule:evenodd;clip-rule:evenodd;fill:#050606;}
</style>
<path class="st0" d="M124,209c-0.8,26.1,18.5,47,43,47c0,15.8,1,118,1,118h-31c0,0,0-39.3,0-46c-5.1-0.4-22.3-7.1-27-11
	c-5.5,6.3-33,32-33,32l-47-46c0,0,28.1-27.8,32-31c-3.6-4.7-11.4-24.3-11-29c-8.7,0.4-46-1-46-1v-65c0,0,41.7-0.6,46-1
	c0-6.7,7.1-20.9,11-26c-3.2-4.3-32-33-32-33l46-49c0,0,29.1,29.8,33,33c3.6-3.2,21.7-10.6,28-11c0-9.5,0-45,0-45h65
	c0,0,1.8,38.7,1,47c7.9,1.2,22.5,6.7,28,11c5.1-4.7,32-33,32-33l46,46c0,0-26.1,27.7-32,34c4.7,5.5,9.6,19.3,10,28c7.9,0,47,0,47,0
	v30c0,0-101,0.4-120,0c-0.8-20.5-17.5-41.6-44-42S124.8,182.9,124,209z M175,213v17h321v-18L175,213z M173,467h323V239H174L173,467z
	 M451,434H300v-26h151V434z M451,352H300v-26h151V352z M217,258h236v21H217V258z M226,320l19,18l43-43l10,10l-53,52l-28-26L226,320z
	 M226,403l19,18l43-43l10,10l-53,52l-28-26L226,403z"/>
</svg>
