<?xml version="1.0" encoding="utf-8"?>
<svg class="preload" version="1.1" id="skat_logo" xmlns="http://www.w3.org/2000/svg" xmlns:xlink="http://www.w3.org/1999/xlink" x="0px" y="0px"
	 viewBox="0 0 155 155" style="enable-background:new 0 0 155 155;" xml:space="preserve">
<style type="text/css">
	#skat_logo {width: 155px; display: block;}
	.st0{fill:#FFFFFF;}
	.st1{fill:none;stroke:#FFFFFF;stroke-width:7.9444;stroke-opacity:0.5;}
	.st2{fill:none;stroke:#FFFFFF;stroke-width:7.9444;stroke-opacity: 1; opacity: 0; transition: opacity 1s;}
	.preload .st2{fill:none;stroke:#FFFFFF;stroke-width:7.9444;stroke-opacity: 1; opacity: 1;}
	.st3{fill:#DB7D43;}
	.st4{fill:#4D59A0;}
</style>
<circle id="cricle_x5F_02" class="st0" cx="78.1" cy="77.5" r="62.9"/>
<circle id="cricle_x5F_01" class="st1" cx="77.5" cy="77.5" r="71.5"/>
<path id="polum" class="st2" d="M149,77.5C149,38,117,6,77.5,6">
<animateTransform  accumulate="none" additive="replace" attributeName="transform" calcMode="linear" dur="1s" fill="remove" from="0 77.5 77.5" repeatCount="indefinite" restart="always" to="360 77.5 77.5" type="rotate">
		</animateTransform>
</path>
<path class="st3" d="M105.8,71.3c0,1.5-0.1,2.9-0.3,4.4c-2.3,14.4-14.7,25-29.2,25c-16.3,0-29.6-13.3-29.6-29.6
	c0-14,9.8-25.8,22.9-28.9c1.6-0.4,3.2-0.6,4.8-0.7c0.5,0,0.8,0.3,0.7,0.6v6c0,0.7-0.2,0.8-0.8,0.8c-1.2,0.1-2.5,0.3-3.7,0.6
	C60.8,52.1,54,61,54,71.1c0,12.3,10,22.3,22.3,22.3c11.1,0,20.4-8.3,22-18.9c0.1-0.4,0.1-0.9,0.1-1.3c0.1-0.5,0.3-0.7,0.7-0.9
	l5.8-1.5C105.7,70.5,105.8,70.3,105.8,71.3L105.8,71.3z"/>
<path class="st4" d="M57.9,121.1c1-0.3,2-0.9,3-1.6v3.9v0c-1,0.6-2,1-3.1,1.3c-1.1,0.3-2.2,0.4-3.3,0.4c-1.3,0-2.5-0.2-3.6-0.6
	c-1.1-0.4-2-1-2.9-1.7c-0.8-0.8-1.5-1.7-1.9-2.8c-0.4-1.1-0.7-2.2-0.7-3.4c0-2.6,0.9-4.6,2.6-6.2c1.7-1.6,4-2.4,6.8-2.4
	c1,0,2,0.1,3,0.3c1,0.2,1.9,0.6,2.9,1v3.9c-0.8-0.6-1.8-1-2.8-1.4c-0.9-0.3-1.8-0.4-2.8-0.4c-1.7,0-3,0.5-3.9,1.4
	c-1,0.9-1.4,2.2-1.4,3.8c0,1.5,0.4,2.8,1.4,3.7c0.9,0.9,2.1,1.4,3.7,1.4C55.9,121.7,56.9,121.5,57.9,121.1z M89.6,108.3l6.4,16.6
	h-4.4l-1.2-3.2h-7.1l-1.4,3.2h-3.2h-1.2h-4.2l-6.3-7.8v7.8h-4.1v-16.6h4.2v7.4l5.6-7.4h4.6l-5.9,7.6l6.6,8l6.8-15.6H89.6z
	 M89.5,118.7l-2.3-6.3l-2.6,6.3H89.5z M93.4,111.4H99v13.5h4.3v-13.5h5.5v-3.1H93.4V111.4z M108.1,56.5L80.5,66.7v0
	c-0.6,0.3-0.7,0.4-0.7,1v6.3c0,0.6,0.2,0.7,0.8,0.4l27.7-10.1c0.7-0.3,0.8-0.4,0.8-1.1V57C109.1,56.4,108.6,56.4,108.1,56.5z
	 M108.1,30L80.5,40.2c-0.6,0.3-0.7,0.4-0.7,1v6.3c0,0.6,0.2,0.7,0.8,0.4l27.7-10.1c0.7-0.2,0.8-0.3,0.8-1.1v-6.3
	C109.1,29.8,108.6,29.8,108.1,30z M108.1,43.6L80.5,53.8c-0.6,0.3-0.7,0.4-0.7,1v6.3c0,0.6,0.2,0.7,0.8,0.4l27.7-10.2
	c0.7-0.2,0.8-0.3,0.8-1.1v-6.3C109.1,43.4,108.6,43.5,108.1,43.6z"/>
</svg>
