<?xml version="1.0" encoding="utf-8"?>
<!-- Generator: Adobe Illustrator 21.0.0, SVG Export Plug-In . SVG Version: 6.00 Build 0)  -->
<svg version="1.1" id="Layer_1" xmlns="http://www.w3.org/2000/svg" xmlns:xlink="http://www.w3.org/1999/xlink" x="0px" y="0px"
	 viewBox="0 0 500 500" style="enable-background:new 0 0 500 500;" xml:space="preserve">
<g transform="translate(0.000000,500.000000) scale(0.100000,-0.100000)">
	<path d="M2329,4376c-2-2-34-6-71-10c-362-34-739-236-986-529c-198-235-309-479-357-787c-20-126-12-399,14-520
		c69-311,205-565,421-780c135-136,259-225,425-305c213-104,418-150,665-150c169,0,260,12,408,51c378,101,709,351,916,691
		c31,51,56,95,56,98c0,2,14,33,30,67c30,62,85,221,95,275c2,15,9,43,14,61s10,35,10,37c-1,3,2,39,6,80c11,118,11,205,0,206
		c-12,2,3,5-193-47c-90-24-165-44-167-44c-7,0-17-38-22-80c-6-60-39-188-67-264c-58-153-144-286-265-407c-282-281-666-396-1061-318
		c-68,14-209,63-273,95c-53,27-186,116-231,154c-258,221-409,544-409,875c0,115,10,198,33,285c7,25,14,53,16,63c6,31,77,190,110,248
		c182,310,504,520,869,564c28,3,54,10,59,15c8,8,13,357,5,364S2334,4380,2329,4376z"/>
	<path d="M3920,4909c-102-38-221-82-265-98s-174-63-290-106c-115-43-293-108-395-145c-102-38-216-80-254-94s-74-30-79-35
		c-13-13-12-380,1-393c6-6,32-1,73,15c35,13,129,48,209,77c80,28,154,56,165,61s164,61,340,125s361,131,410,149
		c239,87,309,115,314,124c5,8,7,331,2,379C4149,4990,4108,4980,3920,4909z M4070,4255c-19-8-258-95-530-195
		c-742-272-893-329-903-339c-12-12-12-380,1-393c9-9,99,24,1072,382c168,62,334,123,369,136c35,12,67,27,70,32c5,8,7,356,2,385
		C4149,4274,4109,4270,4070,4255z M4025,3565c-49-19-171-64-270-100c-99-37-191-71-205-75c-14-5-54-20-90-33
		c-110-42-559-207-670-247c-58-21-117-43-132-50c-31-15-29,0-29-205c0-206,0-205,15-205c8,0,67,20,133,44c65,24,219,81,343,126
		s385,141,580,213c195,71,375,137,398,145c24,8,47,23,51,33c5,15,7,326,2,377C4149,3606,4125,3602,4025,3565z"/>
	<path d="M1252,908c-281-32-443-244-400-527c24-160,165-311,323-347c63-14,221-13,285,2c76,18,180,62,181,78s1,169,0,184
		c-1,10-8,8-28-6c-80-55-202-91-295-87c-146,6-235,91-246,235c-8,122,37,213,128,258c45,22,70,27,138,29c92,2,155-13,243-57l55-28
		l-2,96c-1,53-2,100-3,104c0,4-25,15-53,26C1468,908,1365,921,1252,908z M1750,467V34l103,2c56,1,105,2,109,3c3,0,6,74,7,164
		c0,89,0,177,0,195l1,34l64-79c35-43,108-132,162-198l99-119l108-1c99-1,110,1,123,19l15,21l17-20c15-18,29-20,104-20h86l34,82
		c20,51,38,83,48,84c18,1,318,1,340,0c14-1,70-128,70-158c0-7,42-10,115-10c88,0,115,3,115,13c0,7-11,39-24,71s-42,105-64,163
		c-68,177-119,308-180,465l-59,150h-127h-127l-70-160c-39-88-104-239-146-335c-41-96-86-198-99-227c-13-28-24-56-24-62
		c0-32-28-8-116,102c-114,140-115,142-183,222c-28,33-51,62-51,65c1,4,182,243,258,339c51,64,55,61-76,61c-140,0-107,25-286-213
		c-91-122-126-161-127-145c0,13,0,98-1,191v167h-109h-109V467z M3028,625c6-16,22-61,37-100c14-38,35-94,45-122l19-53l-125,2
		c-68,1-123,5-122,9c53,138,125,306,129,301C3015,658,3022,642,3028,625z M3339,883c-1-21-1-123,0-138c1-6,55-10,144-10h142V385V35
		h115h115l1,345c1,190,2,347,3,350c0,3,58,5,129,5c70-1,132,1,139,3c8,2,11,30,11,83v79h-399C3366,900,3340,899,3339,883z"/>
</g>
</svg>
