<?xml version="1.0" encoding="utf-8"?>
<!-- Generator: Adobe Illustrator 21.0.0, SVG Export Plug-In . SVG Version: 6.00 Build 0)  -->
<svg version="1.1" id="Layer_1" xmlns="http://www.w3.org/2000/svg" xmlns:xlink="http://www.w3.org/1999/xlink" x="0px" y="0px"
	 viewBox="0 0 379 315" style="enable-background:new 0 0 379 315;" xml:space="preserve">
<style type="text/css">
	.st0{fill-rule:evenodd;clip-rule:evenodd;fill:#050606;}
</style>
<path class="st0" d="M374,258l-2-65l-3-3l-59-1c0,0-1.1-24.5-1-28c0.3-2.7,1.6-4.1,4-4c0.7-0.1,2,0,2,0v-6c0,0-1.8-0.1-3,0
	c-2.4,0.2-5.7,2.4-7,4c-1.3,1.6-2.8,3.9-3,8c0,2,0,19,0,19h-12v3h5v3h-12l-1-39l4-4l-42,1v-3h-17l-16,7l-1,3l12,3c0,0-2.3,24.2-3,33
	c-6.4,2-9,9-9,9l-35-25l-1-6l-3-3h-3l-6-12l3-2v-5l-2-2l-7-1l-12,6l-4-3h-7c0,0-15.2,8-21,16c-1.3,0-6,0-6,0v-4l6-8
	c0,0,91.3-32.9,105-39s31.3-17.8,31-51S230.7,9.2,201,7c-6.1,0-26.2,5.3-32,12c-3.2,2.6-34,33-34,33l-18-27L78,8l-4,2l2,3l33,16
	l15,35l-13,11L92,50L65,39l-6,1l3,3l27,13l12,27l-63,61l-24-9l-2,2l19,14l-4,3l-19-9l-2,3l17,12c0,0-1.9,18,12,19
	c3.8,0.2,10.4-0.9,13-7c2.4,1.4,18.1,13.1,32,3c1.6-0.2,4.2,0,6,0c3.8,12.9,12,4,12,4l8,6h3l5-5h4l9,2l28,21v5l3,2l5-1l8,8h-10l-2,3
	l9,2l2,6l-4,1c0,0-4.7-4.6-14-4c-16.3,1-30.4,10.7-31,28c0,23,20,30,20,30l8,4c0,0,6,22,29,22c13.4,0,25.6-6,33-14s10-21,10-21h35
	c0,0,4.8,11,24,11c5.4,0.6,6.2,0,11-1c10.9,10.9,22.2,14.6,35,14c12.8-0.6,32-7.2,32-26c0.6-7,0-14,0-14H374z M159,197h-3l-13-10
	l-4-2v-3l5,3h4l11,9V197z M147,160l9-5l4,6L147,160z M143,267c-2-6.1-3.1-6.9,0-14c2.9-6.7,5.6-6.3,12-8
	C144.8,252.5,145.4,259.2,143,267z M188.5,287c-10.2,0-18.5-8.3-18.5-18.5s8.3-18.5,18.5-18.5s18.5,8.3,18.5,18.5
	S198.7,287,188.5,287z M238,186l-4-4h-5v3h2l1,1l1,2v1h-2v3h-2l-2-3h-4l2-33l4-2h5l4,2V186z M255,191h-4v2l4,2v3h-2l-1-2h-1v2h-4
	l-5-3l3-3l-3-3v-33h13V191z M266,185l-1-4h-2v-25l4.2-3h5.8l3,30L266,185z M328.5,282c-9.7,0-17.5-8.1-17.5-18s7.8-18,17.5-18
	c9.7,0,17.5,8.1,17.5,18S338.2,282,328.5,282z M201,269c0,7.2-5.6,13-12.5,13c-6.9,0-12.5-5.8-12.5-13s5.6-13,12.5-13
	C195.4,256,201,261.8,201,269z M340,264.5c0,6.4-5.4,11.5-12,11.5s-12-5.1-12-11.5s5.4-11.5,12-11.5S340,258.1,340,264.5z"/>
</svg>
