<?xml version="1.0" encoding="utf-8"?>
<!-- Generator: Adobe Illustrator 21.0.0, SVG Export Plug-In . SVG Version: 6.00 Build 0)  -->
<svg version="1.1" id="Capa_1" xmlns="http://www.w3.org/2000/svg" xmlns:xlink="http://www.w3.org/1999/xlink" x="0px" y="0px"
	 viewBox="0 0 449.1 449.1" style="enable-background:new 0 0 449.1 449.1;" xml:space="preserve">
<g>
	<g>
		<path d="M66.7,110.2c0.9-0.4,1.7-0.9,2.6-1.4c0.4,0.6,0.9,1.1,1.4,1.6l48.5,48.5c3-3.6,7.5-5.8,12.4-5.8c1.6,0,3.1,0.2,4.6,0.7
			l6.1,1.8L146,143L92.1,89c-0.9-0.8-1.8-1.6-2.8-2.2l0.1-0.6c0.1-0.5,0.3-0.9,0.4-1.3c0.1-0.3,0.3-0.7,0.4-1
			c0.2-0.4,0.3-0.7,0.5-1.1c0.3-0.7,0.6-1.4,0.9-2.1l1-2.1l1.2-2c0.5-0.9,1-1.7,1.7-2.7c0.3-0.5,0.7-1,1-1.5
			c0.3-0.4,0.6-0.8,0.9-1.2c0.8-1,1.5-2,2.3-2.9l0.6-0.6c1.1-1.1,2.1-2.3,3.3-3.3c0.4-0.3,0.7-0.6,1-0.9c0.4-0.4,0.8-0.8,1.3-1.1
			l2.4-1.7c0.1,0,0.1-0.1,0.2-0.1c0.9-0.8,2.1-1.4,3.3-2.1c0.5-0.3,1-0.5,1.4-0.8c1-0.7,2.1-1.1,3.2-1.5c0.6-0.2,1.1-0.5,1.7-0.7
			c0.3-0.1,0.7-0.3,1-0.4c0.4-0.1,0.7-0.3,1.1-0.4l2.6-0.7c0.5-0.1,1.1-0.3,1.7-0.5c0.8-0.2,1.7-0.5,2.2-0.6l7-1
			c1-0.1,1.9-0.6,2.6-1.3c0.8-0.8,1.3-1.8,1.3-2.9c0.1-2.2-1.2-4.1-3.3-4.8l-6.9-2c-1.2-0.4-2.5-0.5-3.7-0.7
			c-0.5-0.1-1.1-0.2-1.7-0.3l-3-0.5c-0.9-0.2-1.8-0.2-2.6-0.2c-0.3,0-0.6,0-0.9,0c-0.8,0-1.4,0-1.9-0.1c-1.7-0.1-3.7-0.2-5.8,0.1
			l-1.3,0.1c-2,0.2-4.3,0.4-6.6,0.9L96,41c-1.1,0.3-2.1,0.6-3.1,0.9l-1.2,0.4c-2.7,0.7-5.2,1.8-7.7,2.8l-0.3,0.1
			c-2.1,0.9-4,1.9-5.9,2.9l-1.5,0.8c-0.1,0.1-0.2,0.1-0.3,0.2c-0.6,0.4-1.2,0.7-1.8,1.1c-1.6,1-3.3,2-4.8,3.1l-2.6,1.8
			c-0.1,0-0.3,0.2-0.4,0.3l-2.5,2c-0.7,0.5-1.3,1.1-1.9,1.6c-4.6,0.8-9,2.9-12.5,6.4l-5.4,5.4c-2.5,2.5-4.9,6-6.8,10
			C28.8,79.2,17.2,91.8,0,109l38.6,38.5C51.8,134.3,68.4,118.7,66.7,110.2z"/>
		<path d="M369.2,107.8l24.3,4.7l24.7-31.2c4.5-5.7,12-8.3,19-6.6V61.2h-36.5v29.2h-39.3L369.2,107.8z"/>
		<polygon points="148.7,115.7 156.2,90.5 123.4,90.5 		"/>
		<path d="M437.3,247.5v-93.6c-0.7,0.9-1.3,1.8-2,2.7c-10.2,12.8-23.7,22.1-38.8,27h4.3v63.9h-85.6h-12.2l45.9-62.5
			c0.8-1.1,1.6-2.2,2.3-3.3c25.6,6.4,53.8-2.1,71.2-24.1c12.7-16.1,17.7-36.8,13.6-56.9c-0.5-2.3-2.2-4.1-4.5-4.6
			c-2.3-0.5-4.6,0.3-6.1,2.1l-29.6,37.3l-38.4-7.4l-16-35.7L370.8,55c1.4-1.8,1.7-4.3,0.7-6.4c-1-2.1-3.2-3.4-5.5-3.3
			c-20.5,0.6-39.6,10.2-52.3,26.2c-17.4,22-19.3,51.4-7.2,74.8c-0.9,1-1.8,2-2.7,3.1L244.4,220l14.4,14.4c3.7,3.7,6.3,8.2,7.7,13.1
			h-6.4c-1.2-3.2-3-6.2-5.6-8.8L172.8,157l-2.1,7.1l5.5,1.6c4.2,1.2,7.6,4,9.7,7.8c2.1,3.8,2.5,8.2,1.3,12.4c-0.7,2.2-1.8,4.3-3.3,6
			c0.4,3.8,0.1,7.7-1,11.4l-7.3,24.7l19.4,19.4h-6.2h-13.6h-13.6l14.4-48.6c1.2-4.1,1.1-8.4,0-12.2c2-1,3.7-2.9,4.4-5.2
			c1.4-4.6-1.3-9.4-5.8-10.8l-12.8-3.8l34.9-117.3l1.1,0.3l9-17.5l3.5-27.3l-15-4.5l-11.7,24.8l-1.9,19.6l1.1,0.3l-34.9,117.3
			l-13.3-4c-4.6-1.4-9.4,1.3-10.8,5.8c-0.7,2.2-0.4,4.5,0.6,6.4c-3.2,2.6-5.7,6.2-7,10.4l-19.6,66h-13h-5.3v-63.9h24.3l4.3-14.6
			c1.1-3.7,1.8-4.7,4-7.7l-39.2-40.1c-5.4,7.4-10.7,15-18.9,23.2l-11,11v92.1H30.9v127.8c0,40.3,32.7,73,73.1,73h272.1
			c40.3,0,73-32.7,73-73V247.5H437.3z M150.5,202.1c1.4-4.9,6.6-7.6,11.4-6.2c4.8,1.4,7.6,6.6,6.2,11.4l-11.9,40.2h-19.2
			L150.5,202.1z M121,193.3c1.4-4.9,6.6-7.6,11.4-6.2c4.9,1.4,7.6,6.6,6.2,11.4l-14.5,49h-19.1L121,193.3z"/>
		<path d="M197.9,90.5L183.8,138l45.6,45.6h24.4l40.6-48.3c-5.6-14.4-6.8-30-4.1-44.8L197.9,90.5L197.9,90.5z"/>
	</g>
</g>
</svg>
