<?xml version="1.0" encoding="utf-8"?>
<!-- Generator: Adobe Illustrator 21.0.0, SVG Export Plug-In . SVG Version: 6.00 Build 0)  -->
<svg version="1.1" id="Layer_1" xmlns="http://www.w3.org/2000/svg" xmlns:xlink="http://www.w3.org/1999/xlink" x="0px" y="0px"
	 viewBox="0 0 1000 1000" style="enable-background:new 0 0 1000 1000;" xml:space="preserve">
<g>
	<g>
		<g>
			<path d="M451.3,557.6c19.8-12.4,37.7-27.5,53.3-44.7l56,32.3l51-88.3l-55.9-32.3c7.1-21.7,11.3-44.7,12.1-68.6l63.6-11.2
				l-17.7-100.5l-63.6,11.2c-8.8-21.8-20.6-42-34.9-60.2l41.6-49.5l-78.1-65.6l-41.5,49.5c-20.3-10.9-42.2-19-65.4-23.9V41.3h-102
				v64.5c-23.2,4.9-45.1,13-65.4,23.9l-41.5-49.5l-78.1,65.6l41.6,49.5c-14.3,18.2-26.1,38.5-34.9,60.2l-63.6-11.2L10,344.8
				L73.6,356c0.8,23.9,5,46.9,12.1,68.6l-55.9,32.3l51,88.3l56-32.3c15.5,17.3,33.5,32.4,53.3,44.7L168,618.3l95.9,34.9l22.1-60.7
				c11.4,1.6,23,2.5,34.8,2.5s23.4-0.8,34.8-2.5l22.1,60.7l95.9-34.9L451.3,557.6z M320.7,478.1c-71.8,0-130.3-58.4-130.3-130.3
				c0-71.8,58.4-130.3,130.3-130.3S450.9,276,450.9,347.8S392.5,478.1,320.7,478.1z"/>
			<path d="M889.8,634.2l-44,14.2c-8.4-14.6-18.7-27.8-30.7-39.3l24.6-39.2l-61.9-38.8l-24.6,39.2c-15.5-5.7-31.8-9.3-48.7-10.5
				l-6.4-45.8l-72.3,10.1l6.4,45.8c-15.9,5.7-30.7,13.7-44,23.4l-34.3-31L505,616.6l34.4,31c-8.3,14.3-14.7,29.8-18.8,46.2
				l-46.2-1.7l-2.6,73l46.2,1.7c2.9,16.8,8.2,32.7,15.3,47.4l-36.4,28.4l44.9,57.6l36.5-28.5c12.7,10.7,26.9,19.6,42.2,26.5
				l-9.7,45.3l71.4,15.3l9.7-45.2c8.2,0,16.5-0.5,24.9-1.7s16.5-2.9,24.4-5.2l21.7,40.8l64.5-34.2l-21.7-40.9
				c12.8-10.7,24-23.2,33.3-37l42.9,17.4l27.4-67.7l-42.8-17.4c2.9-16.1,3.6-32.8,1.8-49.8l44-14.2L889.8,634.2z M705.2,828.9
				c-50.9,7.1-98.1-28.6-105.2-79.5c-7.1-50.9,28.6-98.1,79.5-105.2c50.9-7.1,98.1,28.6,105.2,79.5
				C791.7,774.6,756.1,821.8,705.2,828.9z"/>
			<path d="M988.3,381.2l1.7-57.6l-36.5-1.1c-2.3-12.7-6.4-25.3-12.4-37.4l28.6-22.6L934,217.3l-28.6,22.6
				c-10.2-8.5-21.5-15.4-33.5-20.6l7.4-35.8l-56.4-11.7l-7.4,35.8c-13,0-26.1,1.9-38.9,5.6l-17.3-32.1l-50.8,27.3l17.3,32.1
				c-10.2,8.6-19,18.6-26.1,29.4l-33.9-13.5L644.4,310l33.9,13.5c-2.2,12.9-2.7,26.1-1.2,39.3l-34.6,11.5l18.1,54.7l34.6-11.5
				c6.8,11.7,15,22,24.4,30.9l-19.2,31l49,30.3l19.2-31.1c12.4,4.4,25.3,7.1,38.5,8l5.3,36.2l57-8.3l-5.3-36.1
				c6.1-2.2,12.1-4.9,18-8.1s11.4-6.7,16.7-10.6l27.3,24.3l38.3-43l-27.3-24.3c6.5-11.5,11.4-23.8,14.5-36.5L988.3,381.2z
				 M850.9,412c-35.8,19.2-80.5,5.8-99.7-29.9c-19.3-35.7-5.8-80.5,29.9-99.7c35.7-19.3,80.5-5.8,99.7,29.9
				C900.1,348.1,886.7,392.8,850.9,412z"/>
		</g>
	</g>
</g>
</svg>
