<?xml version="1.0" encoding="utf-8"?>
<!-- Generator: Adobe Illustrator 21.0.0, SVG Export Plug-In . SVG Version: 6.00 Build 0)  -->
<svg version="1.1" id="svg" xmlns="http://www.w3.org/2000/svg" xmlns:xlink="http://www.w3.org/1999/xlink" x="0px" y="0px"
	 viewBox="0 0 400 401" style="enable-background:new 0 0 400 401;" xml:space="preserve">
<path d="M330.2,278.9c-38.4-38.2-73.6-73.1-78.3-77.5l-8.4-8.2l-20-1.2l-20-1.2l-67.8-67.6L68,55.5v-7.1v-7.1l-7.2-5.9
	c-4-3.2-7.9-6.4-8.8-7.1c-0.8-0.7-8.6-6.8-17.2-13.8C26.2,7.6,19,2,18.8,2c-0.2,0-4.5,4.2-9.7,9.4l-9.3,9.4l6.4,7.9
	C9.6,33,12.7,36.7,13,37s2.3,2.8,4.5,5.5c2.2,2.8,4.2,5.2,4.5,5.5s2.3,2.8,4.5,5.5s6.1,7.6,8.8,10.8l4.9,5.8l7.2,0l7.2,0l67.8,67.8
	l67.8,67.8l0.4,13c0.2,7.1,0.7,16,1,19.8l0.6,6.8l73.7,73.3c92.5,92,82.5,82.8,88.7,82.1c6.8-0.7,7.4-0.9,12.5-3.5
	c17.1-8.8,33-29.3,33-42.7l0-6.1L330.2,278.9z M355,380.5c-1.3,1.4-3,2.5-3.8,2.5c-1.2,0-30.1-28.5-138.5-136.4l-4.9-4.9l3.3-3.4
	l3.3-3.4l12.5,12.3c6.9,6.7,35.9,35.7,64.5,64.3c28.6,28.6,55.2,55.3,59,59.2l6.9,7.2L355,380.5z M380.5,355l-3.5,3.5l-41.7-41.6
	c-23-22.9-55.2-55-71.6-71.3l-29.9-29.7l3.3-3.5l3.3-3.5l16,15.7c8.8,8.7,41.1,40.7,71.8,71.2l55.8,55.5L380.5,355z M198.2,172.3
	L186,161.6l39-39.1l39-39.1l-1-3.5c-8.9-31.1,19.1-74.2,51-78.6c2.5-0.3,4.7-0.8,4.9-1C319.7-0.4,333.7,0,340,1
	c10.9,1.7,26.7,9.4,32.3,15.7c1.8,2,1.7,2.1-5.5,4.3c-4,1.2-8.4,2.6-9.8,3.1c-1.4,0.5-3.4,1.1-4.5,1.3c-2.5,0.5-11.5,3.3-17.5,5.4
	c-23.7,8.5-24.7,47.5-1.5,59.1c10.2,5.1,17.6,4.9,37.4-1c3.5-1,7.6-2.1,9-2.4c1.4-0.3,4.7-1.1,7.3-1.9c6.8-2,6.9-0.7,1,10.9
	c-13.5,26.4-40.6,40.6-69.6,36.6l-7.9-1.1l-6.1,5.8c-8.3,7.9-19,17.8-41.5,38.6l-8.3,7.7l-22.2,0l-22.2,0L198.2,172.3z M184.3,206
	c-0.4,0-5.5-4.3-11.3-9.5c-5.8-5.2-10.9-9.5-11.3-9.5c-0.5,0-10.6,9.5-22.5,21.2C89.3,257,10.9,335.8,8,340.2
	c-14.6,21.4,3.4,51.7,30.2,50.7c12.4-0.5,8.9,2.6,86.1-74.1l60.8-60.4v-25.2C185,217.3,184.7,206,184.3,206z M36,366.6
	c-12.4-0.7-12-18.6,0.4-18.6c3.3,0,4.8,0.6,6.9,2.8C49.4,357.2,44.9,367.1,36,366.6z"/>
</svg>
