<?xml version="1.0" encoding="utf-8"?>
<!-- Generator: Adobe Illustrator 21.0.0, SVG Export Plug-In . SVG Version: 6.00 Build 0)  -->
<svg version="1.1" id="svg" xmlns="http://www.w3.org/2000/svg" xmlns:xlink="http://www.w3.org/1999/xlink" x="0px" y="0px"
	 viewBox="0 0 400 344" style="enable-background:new 0 0 400 344;" xml:space="preserve">
<g>
	<path d="M266.8,114.4c-0.7-13.2-6-17.4-22.3-17.4H234v18.5V134h10.4C262.5,134,267.6,129.6,266.8,114.4z M250.1,125.1
		c-1.9,0-5.1,0.1-5.1,0.1l0.1-18.5c0,0,3.6-0.2,5.3-0.1c3.1,0.1,5.6,0,5.9,9.1S253.8,125.1,250.1,125.1z"/>
	<path d="M181.5,134l6.9,0.1l-1-2.8c-1.5-3.2-2.5-4.9-4.5-8l-3.9-5.2l3.3-2.9c1.8-1.6,3-1.8,3.2-7.5c0-9.3-0.3-10-20.3-10.5H153
		v18.5V134h6h6v-7c0-3.8,0.1-7.5,0.1-7.5s4.9,5.7,5.9,7c1.1,1.6,5.3,7.3,5.3,7.3S175.2,134,181.5,134z M173,109.5
		c0,1.7-0.4,2-2.3,2.1l-5.7,0.1V106h6.3c1.5,0.1,1.8,0.3,1.8,2v1.5H173z"/>
	<polygon points="305,261.9 305,140 268,140 268,204.2 224,140 188,140 188,261 225,261 224.5,196.5 267.5,261 	"/>
	<path d="M47,211.1c0,2.5,3.3,0.2,5.7-3.9c1.5-2.6,3-5,3.4-5.3c0.3-0.3,2.8-4.5,5.4-9.4s5.3-9.5,5.9-10.3c2.8-3.3,3.1-3.9,3.4-5.3
		c0.2-0.8,0.7-1.7,1-2c0.7-0.5,3.1-4.4,7.8-12.7c5.1-9,0.7-17-8.8-16.1c-5.8,0.6-6.5,1.2-12.9,12c-5,8.4-5.1,8.4-4.4-1
		C54.9,136.6,68.2,94,73.2,94c0.5,0,0.8-0.9,0.8-1.9c0-1.1,0.4-2.2,1-2.5c0.5-0.3,2.6-3.1,4.6-6.1s4.4-5.9,5.3-6.4s1.2-1,0.7-1
		C84,76,109,52,110.6,52c0.8,0,1.4-0.4,1.4-1s1.3-1.7,2.9-2.5s3.5-2.1,4.3-2.9c0.8-0.8,2.9-2.2,4.8-3.1c1.9-1,4.1-2.3,5-3
		c0.8-0.7,4.4-2.4,8-3.9s7.2-3.1,8-3.5c1.8-1,16.9-5.4,26.5-7.8c22-5.5,64.1-1.5,86,8.2c11.6,5.1,21.4,10.5,24.6,13.6
		c0.8,0.7,2.4,1.8,3.5,2.3c6.5,3,27.3,23.7,34.2,34c2.6,3.9,4.9,7.2,5.2,7.5c1.9,1.9,9.6,18,11.5,24c4.3,13.8,4.6,14.2,6.8,13.5
		c1.2-0.4,5.3-1.4,9.1-2.2c10.2-2.2,10.5-4.5,2.6-23.8c-2.2-5.4-6.5-14.3-7.9-16.5c-0.9-1.4-1.7-2.7-1.7-3c-0.2-1.1-4.1-7.4-6.2-10
		c-1.2-1.5-2-3-1.8-3.4c0.3-0.4,0.2-0.4-0.2-0.2c-0.4,0.3-2-1.5-3.8-3.9C326,54,316.1,44.3,299.8,31.5C270.3,8.3,220-4.1,178.5,1.6
		c-30.9,4.3-64.3,17.8-81.7,33.2c-1.5,1.3-2.9,2.3-3.2,2.3C92.2,37,74.8,54.6,68.1,63c-6.8,8.4-8.7,11.2-13.8,19.5
		c-12.9,21-22.2,54.6-22.2,80.4v7.4l-8.3-8c-11-10.7-17.9-11.7-22.3-3.3c-3.1,6-1.5,9.3,9.4,19.7c5.3,5.1,11.1,10.6,12.8,12.3
		s3.4,3,3.7,3c0.3,0,2.2,1.6,4.3,3.6s6.4,5.7,9.6,8.1C44.4,208.3,47,210.7,47,211.1z"/>
	<polygon points="123,134 129,134 135,134 135,120.5 135,107 140.5,107 146,107 146,102 146,97 129.5,97 113,97 113,102 113,107 
		118,107 123,107 123,120.5 	"/>
	<polygon points="305.2,125.5 285,124.9 285,119 303,119 303,111.1 284.8,111.1 284.8,105.9 304.3,106 304.5,97 274,97 274,115.5 
		274,134 305.1,134 	"/>
	<path d="M214.6,128.6l2.3,5.5h12.2c0,0-3.4-10-8.7-23.6c-1.3-3.3-2.9-7.7-3.6-9.8l-1.3-3.8L201.8,97l-12,36.9l12-0.3l1.6-5.1
		L214.6,128.6z M209,111l3.1,8.2l-6.1,0.2L209,111z"/>
	<polygon points="156,261 156,200.5 156,140 137,140 118,140 118,200.5 118,261 137,261 	"/>
	<path d="M373.4,151.4c-20.8-19.3-21.4-19.8-21.4-17.2c0,0.7-1.4,2.7-3,4.4c-1.6,1.8-3,3.4-3,3.8c0,0.6-9.5,15.6-13.1,20.8
		c-1,1.5-1.9,3-1.9,3.3s-1,2-2.3,3.8c-11.4,16.1-12.7,25.2-4.1,29.6c4.5,2.3,11.4-0.2,13.3-4.9c1.1-2.5,5.3-9.6,8.8-14.7
		c1.4-2.1,0.5,14.7-1.4,25.2c-3.1,17.2-16.3,48-22.4,52.5c-0.4,0.3-1,1.5-1.4,2.7c-0.7,2.2-27.6,30.4-27.6,29c0-0.4-1.4,0.5-3.1,2
		s-3.5,2.6-4,2.5s-0.9,0.2-0.9,0.8s-0.5,1-1,1s-2,0.9-3.2,2.1c-1.2,1.1-4.1,3-6.5,4.2c-2.3,1.2-4.3,2.5-4.3,2.9
		c0,0.5-0.7,0.8-1.5,0.8s-2.9,0.8-4.8,1.8c-21.9,11.8-61.3,17.3-87.9,12.3c-18.8-3.5-44.9-12.4-44.9-15.3c0-0.5-0.3-0.8-0.8-0.5
		c-0.8,0.4-7.5-3.6-17.8-10.8C108,289.8,89,272.1,89,270.8c0-0.3-1.3-2-2.9-3.7s-3.6-4.7-4.5-6.6S79.5,257,79,257s-1-0.7-1-1.5
		s-0.4-1.5-0.8-1.5c-1.2,0-10.8-19.5-13.6-27.5c-2.9-8.3-2.6-8.2-11.4-5.6c-3.8,1.1-8.1,2.2-9.4,2.3c-2.3,0.2-2.4,0.4-1.6,3.3
		c0.5,1.7,1.3,4.4,1.8,6c2.6,9.3,9.6,24.8,13.6,30.2c1.3,1.8,2.4,3.5,2.4,3.8c0,0.6,8.3,12.7,10.4,15.2c0.6,0.7,2.8,3.1,4.8,5.2
		c2,2.2,3.8,4.3,4,4.8s4,4,8.4,7.8s8.7,7.6,9.5,8.4c5,4.9,30,19.7,38.5,22.7c19.2,6.9,30.4,10,39.3,10.9c25.8,2.6,33.9,2.6,55.2-0.4
		c18.1-2.6,43.1-11,54.3-18.4c1.5-1,2.8-1.5,2.8-1c0,0.4,0.3,0.4,0.8-0.2s3.2-2.6,6.2-4.5c17-10.6,48-41,48-47c0-0.5,0.4-1,0.8-1
		s1.9-1.9,3.2-4.3c1.3-2.3,2.6-4.5,2.9-4.8c1.1-0.9,9.1-17.9,9.1-19.3c0-0.7,0.4-1.7,0.9-2.3c0.8-0.9,3.2-7.5,3.7-10
		c0.1-0.5,0.9-3.3,1.9-6c2.1-6.2,5.3-24.9,6.1-36.4l0.7-8.7l3,2.5c1.7,1.4,4.7,4.2,6.8,6.2c7.7,7.5,15.4,7.7,18.7,0.4
		C402.3,178.8,401.3,177.4,373.4,151.4z"/>
</g>
</svg>
