<svg xmlns="http://www.w3.org/2000/svg" viewBox="0 0 400 401"><path d="M330.2 278.9c-38.4-38.2-73.6-73.1-78.3-77.5l-8.4-8.2-20-1.2-20-1.2-67.8-67.6L68 55.5V41.3l-7.2-5.9c-4-3.2-7.9-6.4-8.8-7.1-.8-.7-8.6-6.8-17.2-13.8C26.2 7.6 19 2 18.8 2c-.2 0-4.5 4.2-9.7 9.4l-9.3 9.4 6.4 7.9c3.4 4.3 6.5 8 6.8 8.3s2.3 2.8 4.5 5.5c2.2 2.8 4.2 5.2 4.5 5.5s2.3 2.8 4.5 5.5 6.1 7.6 8.8 10.8l4.9 5.8h14.4l67.8 67.8 67.8 67.8.4 13c.2 7.1.7 16 1 19.8l.6 6.8 73.7 73.3c92.5 92 82.5 82.8 88.7 82.1 6.8-.7 7.4-.9 12.5-3.5 17.1-8.8 33-29.3 33-42.7v-6.1l-69.9-69.5zM355 380.5c-1.3 1.4-3 2.5-3.8 2.5-1.2 0-30.1-28.5-138.5-136.4l-4.9-4.9 3.3-3.4 3.3-3.4 12.5 12.3c6.9 6.7 35.9 35.7 64.5 64.3 28.6 28.6 55.2 55.3 59 59.2l6.9 7.2-2.3 2.6zm25.5-25.5l-3.5 3.5-41.7-41.6c-23-22.9-55.2-55-71.6-71.3l-29.9-29.7 3.3-3.5 3.3-3.5 16 15.7c8.8 8.7 41.1 40.7 71.8 71.2l55.8 55.5-3.5 3.7zM198.2 172.3L186 161.6l39-39.1 39-39.1-1-3.5c-8.9-31.1 19.1-74.2 51-78.6 2.5-.3 4.7-.8 4.9-1 .8-.7 14.8-.3 21.1.7 10.9 1.7 26.7 9.4 32.3 15.7 1.8 2 1.7 2.1-5.5 4.3-4 1.2-8.4 2.6-9.8 3.1-1.4.5-3.4 1.1-4.5 1.3-2.5.5-11.5 3.3-17.5 5.4-23.7 8.5-24.7 47.5-1.5 59.1 10.2 5.1 17.6 4.9 37.4-1 3.5-1 7.6-2.1 9-2.4 1.4-.3 4.7-1.1 7.3-1.9 6.8-2 6.9-.7 1 10.9-13.5 26.4-40.6 40.6-69.6 36.6l-7.9-1.1-6.1 5.8c-8.3 7.9-19 17.8-41.5 38.6l-8.3 7.7h-44.4l-12.2-10.8zM184.3 206c-.4 0-5.5-4.3-11.3-9.5-5.8-5.2-10.9-9.5-11.3-9.5-.5 0-10.6 9.5-22.5 21.2C89.3 257 10.9 335.8 8 340.2c-14.6 21.4 3.4 51.7 30.2 50.7 12.4-.5 8.9 2.6 86.1-74.1l60.8-60.4v-25.2c-.1-13.9-.4-25.2-.8-25.2zM36 366.6c-12.4-.7-12-18.6.4-18.6 3.3 0 4.8.6 6.9 2.8 6.1 6.4 1.6 16.3-7.3 15.8z"/></svg>